<?xml version="1.0" encoding="UTF-8"?>
<svg id="Layer_2" data-name="Layer 2" xmlns="http://www.w3.org/2000/svg" viewBox="0 0 116.42 114.58">
  <defs>
    <style>
      .cls-1 {
        fill: #f4f4f4;
        fill-rule: evenodd;
        stroke-width: 0px;
      }
    </style>
  </defs>
  <g id="Layer_1-2" data-name="Layer 1">
    <path class="cls-1" d="M21.17,0c-5.61,0-11,2.19-14.97,6.1C2.23,10.01,0,15.31,0,20.83v72.92c0,5.53,2.23,10.82,6.2,14.73,3.97,3.91,9.35,6.1,14.97,6.1h74.08c5.61,0,11-2.19,14.97-6.1,3.97-3.91,6.2-9.21,6.2-14.73V20.83c0-5.53-2.23-10.82-6.2-14.73-3.97-3.91-9.35-6.1-14.97-6.1H21.17ZM45.94,32.67c0-4.52,1.82-8.86,5.07-12.05,3.25-3.2,7.65-4.99,12.24-4.99h15.4c1.06,0,1.92.85,1.92,1.9v15.15c0,1.04-.86,1.89-1.92,1.89h-7.7c-.76,0-1.51.15-2.21.43-.7.29-1.34.7-1.87,1.23-.54.53-.96,1.15-1.25,1.84-.29.69-.44,1.43-.44,2.17v5.68h13.47c.29,0,.58.07.84.19.26.13.49.31.67.54.18.23.3.49.36.77.06.28.06.57-.02.85l-3.85,15.16c-.11.41-.35.77-.68,1.03-.34.26-.76.4-1.18.4h-9.62v32.2c0,.5-.2.98-.56,1.34-.36.36-.85.56-1.36.56h-15.39c-.51,0-1-.2-1.36-.56-.36-.36-.56-.84-.56-1.34v-32.19h-9.62c-.51,0-1-.2-1.36-.56-.36-.36-.56-.84-.56-1.34v-15.16c0-1.04.86-1.89,1.93-1.89h9.62v-13.26Z"/>
  </g>
</svg>