<svg width="127" height="125" viewBox="0 0 127 125" fill="none" xmlns="http://www.w3.org/2000/svg">
<path fill-rule="evenodd" clip-rule="evenodd" d="M26.4583 5.20831C20.8446 5.20831 15.4608 7.40325 11.4912 11.3103C7.52173 15.2173 5.29167 20.5163 5.29167 26.0416V98.9583C5.29167 104.484 7.52173 109.783 11.4912 113.69C15.4608 117.597 20.8446 119.792 26.4583 119.792H100.542C106.155 119.792 111.539 117.597 115.509 113.69C119.478 109.783 121.708 104.484 121.708 98.9583V26.0416C121.708 20.5163 119.478 15.2173 115.509 11.3103C111.539 7.40325 106.155 5.20831 100.542 5.20831H26.4583ZM51.2339 37.8802C51.2339 33.36 53.0579 29.0248 56.3049 25.8281C59.5518 22.6313 63.9557 20.8347 68.5483 20.8333H83.947C85.0053 20.8333 85.8679 21.6823 85.8679 22.7291V37.8802C85.8679 38.9218 85.0053 39.7708 83.947 39.7708H76.2476C75.4897 39.7708 74.7393 39.9178 74.0391 40.2034C73.339 40.4891 72.7029 40.9077 72.1672 41.4354C71.6316 41.9631 71.2068 42.5896 70.9173 43.279C70.6277 43.9684 70.479 44.7071 70.4797 45.4531V51.1354H83.947C84.2391 51.1363 84.5271 51.2026 84.7892 51.3293C85.0514 51.4559 85.2809 51.6396 85.4603 51.8664C85.6398 52.0932 85.7645 52.3571 85.825 52.6383C85.8855 52.9196 85.8803 53.2106 85.8097 53.4896L81.9626 68.6458C81.8576 69.0547 81.6167 69.4172 81.2782 69.6758C80.9397 69.9344 80.5231 70.0741 80.0947 70.0729H70.4744V102.271C70.4744 102.774 70.2715 103.256 69.9103 103.611C69.549 103.967 69.0591 104.167 68.5483 104.167H53.1548C52.6449 104.165 52.1563 103.965 51.7962 103.61C51.4361 103.254 51.2339 102.773 51.2339 102.271V70.0781H41.6137C41.1028 70.0781 40.6129 69.8784 40.2517 69.5228C39.8904 69.1673 39.6875 68.6851 39.6875 68.1823V53.026C39.6875 51.9843 40.55 51.1354 41.6137 51.1354H51.2339V37.8802Z" fill="#F4F4F4"/>
</svg>
