<svg width="123" height="118" viewBox="0 0 123 118" fill="none" xmlns="http://www.w3.org/2000/svg">
<path d="M61.5 44.368C58.4834 44.368 55.5346 45.2261 53.0264 46.8339C50.5183 48.4417 48.5634 50.7269 47.409 53.4006C46.2546 56.0742 45.9526 59.0162 46.5411 61.8546C47.1296 64.6929 48.5822 67.3001 50.7152 69.3464C52.8482 71.3927 55.5659 72.7863 58.5245 73.3509C61.4831 73.9154 64.5497 73.6257 67.3367 72.5182C70.1236 71.4107 72.5057 69.5353 74.1816 67.1291C75.8575 64.7229 76.752 61.8939 76.752 59C76.752 57.0785 76.3575 55.1758 75.591 53.4006C74.8245 51.6253 73.7011 50.0123 72.2848 48.6536C70.8685 47.2949 69.1871 46.2171 67.3367 45.4818C65.4862 44.7465 63.5029 44.368 61.5 44.368ZM122.57 29.913C122.537 25.3568 121.663 20.8422 119.987 16.579C118.752 13.4594 116.842 10.6265 114.383 8.26699C111.923 5.90753 108.97 4.07523 105.719 2.891C101.275 1.28304 96.5688 0.444039 91.8195 0.413C83.886 -3.95626e-07 81.549 0 61.5 0C41.451 0 39.114 -3.95626e-07 31.1805 0.413C26.4312 0.444039 21.7253 1.28304 17.2815 2.891C14.0297 4.07523 11.0767 5.90753 8.61729 8.26699C6.15785 10.6265 4.24791 13.4594 3.0135 16.579C1.3374 20.8422 0.462855 25.3568 0.4305 29.913C-4.1239e-07 37.524 0 39.766 0 59C0 78.234 -4.1239e-07 80.476 0.4305 88.087C0.496698 92.6593 1.37006 97.1877 3.0135 101.48C4.24244 104.585 6.15079 107.402 8.61 109.74C11.0589 112.114 14.0182 113.946 17.2815 115.109C21.7253 116.717 26.4312 117.556 31.1805 117.587C39.114 118 41.451 118 61.5 118C81.549 118 83.886 118 91.8195 117.587C96.5688 117.556 101.275 116.717 105.719 115.109C108.982 113.946 111.941 112.114 114.39 109.74C116.849 107.402 118.758 104.585 119.987 101.48C121.661 97.1959 122.535 92.6622 122.57 88.087C123 80.476 123 78.234 123 59C123 39.766 123 37.524 122.57 29.913ZM106.948 77.113C106.751 80.7539 105.941 84.3402 104.55 87.733C103.356 90.5631 101.581 93.1341 99.3308 95.293C97.0804 97.4519 94.4006 99.1546 91.4505 100.3C87.8805 101.56 84.1214 102.258 80.319 102.365C75.4605 102.365 74.169 102.365 61.5 102.365C48.831 102.365 47.5395 102.365 42.681 102.365C38.8786 102.258 35.1195 101.56 31.5495 100.3C28.4997 99.2127 25.7456 97.4782 23.493 95.226C21.2646 93.1094 19.5437 90.5524 18.45 87.733C17.1312 84.3117 16.4242 80.7012 16.359 77.054C16.359 72.393 16.359 71.154 16.359 59C16.359 46.846 16.359 45.607 16.359 40.946C16.4242 37.2988 17.1312 33.6883 18.45 30.267C19.5833 27.3412 21.3914 24.699 23.739 22.538C25.9551 20.4118 28.6176 18.7626 31.5495 17.7C35.1195 16.4398 38.8786 15.7424 42.681 15.635C47.5395 15.635 48.831 15.635 61.5 15.635C74.169 15.635 75.4605 15.635 80.319 15.635C84.1214 15.7424 87.8805 16.4398 91.4505 17.7C94.5003 18.7873 97.2544 20.5218 99.507 22.774C101.735 24.8906 103.456 27.4476 104.55 30.267C105.864 33.6919 106.591 37.2982 106.703 40.946C106.703 45.607 106.703 46.846 106.703 59C106.703 71.154 107.133 72.393 106.948 77.054V77.113ZM97.1085 33.217C96.3763 31.3112 95.2218 29.5805 93.7247 28.1443C92.2276 26.708 90.4235 25.6005 88.437 24.898C85.7093 23.9909 82.8365 23.5516 79.95 23.6C75.153 23.6 73.8 23.6 61.5 23.6C49.2 23.6 47.847 23.6 43.05 23.6C40.1488 23.6272 37.2756 24.1465 34.563 25.134C32.6069 25.8046 30.8219 26.8669 29.3268 28.2504C27.8317 29.6339 26.6606 31.3068 25.8915 33.158C24.9984 35.7857 24.562 38.5364 24.6 41.3C24.6 45.902 24.6 47.2 24.6 59C24.6 70.8 24.6 72.098 24.6 76.7C24.661 79.4801 25.2013 82.2313 26.199 84.842C26.9312 86.7478 28.0857 88.4785 29.5828 89.9147C31.0799 91.351 32.884 92.4585 34.8705 93.161C37.4945 94.0868 40.2558 94.6046 43.05 94.695C47.847 94.695 49.2 94.695 61.5 94.695C73.8 94.695 75.153 94.695 79.95 94.695C82.8512 94.6678 85.7244 94.1485 88.437 93.161C90.4235 92.4585 92.2276 91.351 93.7247 89.9147C95.2218 88.4785 96.3763 86.7478 97.1085 84.842C98.1378 82.2397 98.6791 79.4832 98.7075 76.7C98.7075 72.098 98.7075 70.8 98.7075 59C98.7075 47.2 98.7075 45.902 98.7075 41.3C98.7093 38.514 98.1669 35.7524 97.1085 33.158V33.217ZM61.5 81.538C58.4178 81.538 55.3658 80.9546 52.5189 79.8213C49.6721 78.6879 47.0863 77.0268 44.9096 74.9332C42.733 72.8396 41.0084 70.3546 39.8344 67.6205C38.6605 64.8864 38.0604 61.9569 38.0685 59C38.0685 54.5399 39.4479 50.1801 42.0321 46.4724C44.6163 42.7648 48.289 39.8761 52.5854 38.172C56.8818 36.4679 61.6086 36.0251 66.1674 36.8995C70.7263 37.7739 74.9122 39.9263 78.1953 43.0842C81.4784 46.2421 83.711 50.2635 84.6106 54.6393C85.5101 59.0152 85.0361 63.5486 83.2485 67.6659C81.4609 71.7831 78.4402 75.299 74.5687 77.7684C70.6972 80.2378 66.1491 81.5497 61.5 81.538ZM86.1 40.887C84.7405 40.7489 83.4823 40.1331 82.568 39.1581C81.6536 38.1832 81.1476 36.918 81.1476 35.6065C81.1476 34.295 81.6536 33.0299 82.568 32.0549C83.4823 31.0799 84.7405 30.4641 86.1 30.326C87.4595 30.4641 88.7177 31.0799 89.632 32.0549C90.5464 33.0299 91.0524 34.295 91.0524 35.6065C91.0524 36.918 90.5464 38.1832 89.632 39.1581C88.7177 40.1331 87.4595 40.7489 86.1 40.887Z" fill="#F4F4F4"/>
</svg>
