<?xml version="1.0" encoding="UTF-8"?>
<svg id="Layer_2" data-name="Layer 2" xmlns="http://www.w3.org/2000/svg" xmlns:xlink="http://www.w3.org/1999/xlink" viewBox="0 0 429 204">
  <defs>
    <style>
      .cls-1 {
        clip-path: url(#clippath);
      }

      .cls-2 {
        fill: none;
      }

      .cls-2, .cls-3, .cls-4, .cls-5 {
        stroke-width: 0px;
      }

      .cls-6 {
        mask: url(#mask);
      }

      .cls-3 {
        fill: #1b1e28;
      }

      .cls-4 {
        fill: #fff;
      }

      .cls-5 {
        fill: #f4f4f4;
      }
    </style>
    <clipPath id="clippath">
      <rect class="cls-2" width="429" height="204"/>
    </clipPath>
    <mask id="mask" x="-.01" y="0" width="429.01" height="204" maskUnits="userSpaceOnUse">
      <g id="mask0_204_4165" data-name="mask0 204 4165">
        <path class="cls-4" d="m428.71,0H0v204h428.71V0Z"/>
      </g>
    </mask>
  </defs>
  <g id="Layer_7" data-name="Layer 7">
    <g class="cls-1">
      <g>
        <g class="cls-6">
          <g>
            <path class="cls-3" d="m399.48,204H27.84l-.29-.79c-2.12-5.72-5.79-11.02-10.56-15.31-4.43-3.98-9.92-7.15-15.86-9.18l-.84-.27V55.59l.87-.27c4.76-1.52,11.7-4.62,17.58-10.68,5.39-5.54,7.75-11.36,8.78-15.27l.24-.89h371.76l.34.67c2.69,5.09,6.28,9.78,10.65,13.88,4.61,4.33,9.99,7.98,15.98,10.79l.69.31,1.83,127.49-.91.25c-5.83,1.66-11.19,4.25-15.87,7.65-5.16,3.75-9.42,8.51-12.34,13.8l-.36.64v.04h-.03Z"/>
            <path class="cls-5" d="m399.2,204H27.54l-.29-.79c-2.12-5.72-5.79-11.02-10.56-15.31-4.43-3.98-9.92-7.15-15.86-9.18l-.84-.27V55.59l.87-.27c4.76-1.52,11.7-4.62,17.58-10.68,5.39-5.54,7.75-11.36,8.78-15.27l.24-.89h371.76l.34.67c2.69,5.09,6.28,9.78,10.65,13.88,4.61,4.33,9.99,7.98,15.98,10.79l.69.31,1.84,127.49-.91.25c-5.83,1.66-11.19,4.25-15.87,7.65-5.16,3.75-9.42,8.51-12.34,13.8l-.36.64v.04h-.01Zm-369.74-2.27h368.11c3.08-5.31,7.45-10.12,12.67-13.91,4.71-3.43,10.02-6.05,15.83-7.82l-1.81-124.51c-6-2.89-11.35-6.57-15.99-10.94-4.37-4.11-7.97-8.76-10.74-13.81H29.53c-1.23,4.11-3.77,9.86-9.11,15.34-5.91,6.09-12.82,9.36-17.82,11.06v119.71c5.97,2.15,11.46,5.41,15.96,9.44,4.86,4.33,8.6,9.66,10.89,15.41v.03h.01Z"/>
            <path class="cls-5" d="m393.86,52.18c-.73,0-1.3-.5-1.3-1.12v-13.46c0-.62.57-1.12,1.3-1.12s1.3.5,1.3,1.12v13.46c0,.62-.57,1.12-1.3,1.12Z"/>
            <path class="cls-5" d="m393.86,156.27c-.73,0-1.3-.5-1.3-1.12v-26.02c0-.62.57-1.12,1.3-1.12s1.3.5,1.3,1.12v26.02c0,.62-.57,1.12-1.3,1.12Zm0-52.05c-.73,0-1.3-.5-1.3-1.12v-26.02c0-.62.57-1.12,1.3-1.12s1.3.5,1.3,1.12v26.02c0,.62-.57,1.12-1.3,1.12Z"/>
            <path class="cls-5" d="m393.86,195.76c-.73,0-1.3-.5-1.3-1.12v-13.46c0-.62.57-1.12,1.3-1.12s1.3.5,1.3,1.12v13.46c0,.62-.57,1.12-1.3,1.12Z"/>
            <path class="cls-5" d="m395.17,37.6h-2.62v13.46h2.62v-13.46Z"/>
            <path class="cls-5" d="m395.17,155.15h-2.62v-26.02h2.62v26.02Zm0-52.05h-2.62v-26.02h2.62v26.02Z"/>
            <path class="cls-5" d="m395.17,181.18h-2.62v13.46h2.62v-13.46Z"/>
            <path class="cls-5" d="m34.84,52.18c-.73,0-1.3-.5-1.3-1.12v-13.46c0-.62.57-1.12,1.3-1.12s1.3.5,1.3,1.12v13.46c0,.62-.57,1.12-1.3,1.12Z"/>
            <path class="cls-5" d="m34.84,156.27c-.73,0-1.3-.5-1.3-1.12v-26.02c0-.62.57-1.12,1.3-1.12s1.3.5,1.3,1.12v26.02c0,.62-.57,1.12-1.3,1.12Zm0-52.05c-.73,0-1.3-.5-1.3-1.12v-26.02c0-.62.57-1.12,1.3-1.12s1.3.5,1.3,1.12v26.02c0,.62-.57,1.12-1.3,1.12Z"/>
            <path class="cls-5" d="m34.84,195.76c-.73,0-1.3-.5-1.3-1.12v-13.46c0-.62.57-1.12,1.3-1.12s1.3.5,1.3,1.12v13.46c0,.62-.57,1.12-1.3,1.12Z"/>
            <path class="cls-5" d="m36.16,37.6h-2.62v13.46h2.62v-13.46Z"/>
            <path class="cls-5" d="m36.16,155.15h-2.62v-26.02h2.62v26.02Zm0-52.05h-2.62v-26.02h2.62v26.02Z"/>
            <path class="cls-5" d="m36.16,181.18h-2.62v13.46h2.62v-13.46Z"/>
          </g>
        </g>
        <path class="cls-5" d="m113.3,133.69h-11.11l-2.76,10.64h-8.42l13.67-47.47h6.67l13.74,47.47h-8.89l-2.89-10.64Zm-9.29-7h7.81l-2.69-10.98-1.08-7.41h-.27l-1.14,7.47-2.63,10.91Zm50.91-18.59c0,1.17-.13,2.34-.4,3.5-.22,1.12-.61,2.2-1.14,3.23-.54.99-1.26,1.86-2.15,2.63-.85.76-1.89,1.35-3.1,1.75v.4c1.08.27,2.09.67,3.03,1.21.99.54,1.84,1.28,2.56,2.22.72.9,1.28,2.02,1.68,3.37.45,1.3.67,2.85.67,4.65,0,2.42-.43,4.53-1.28,6.33-.81,1.75-1.93,3.19-3.37,4.31-1.39,1.12-3.03,1.95-4.92,2.49-1.89.54-3.88.81-5.99.81h-2.42c-.99,0-2.06-.04-3.23-.14-1.12-.04-2.29-.13-3.5-.27-1.21-.13-2.33-.34-3.37-.61v-46.47c1.48-.27,3.3-.49,5.45-.67,2.2-.22,4.38-.34,6.53-.34,1.98,0,3.86.16,5.66.47,1.84.31,3.43.9,4.78,1.75,1.39.85,2.49,2.04,3.3,3.57.81,1.48,1.21,3.41,1.21,5.79Zm-14.21,29.56c1.89,0,3.43-.61,4.65-1.82,1.21-1.21,1.82-2.99,1.82-5.32,0-1.48-.2-2.65-.61-3.5-.4-.9-.94-1.57-1.62-2.02-.67-.49-1.46-.81-2.36-.94-.85-.14-1.75-.2-2.69-.2h-3.43v13.4c.36.13.96.25,1.82.34.9.04,1.71.07,2.42.07Zm-2.29-20.47c.49,0,1.06-.02,1.68-.07.67-.09,1.21-.18,1.62-.27,1.3-.49,2.4-1.3,3.3-2.42.94-1.12,1.41-2.58,1.41-4.38,0-1.17-.16-2.15-.47-2.96-.31-.81-.74-1.44-1.28-1.89-.54-.49-1.19-.83-1.95-1.01-.72-.22-1.5-.34-2.36-.34-1.84,0-3.14.09-3.91.27v13.06h1.95Zm21.5,3.57c0-7.99,1.37-14.07,4.11-18.25,2.74-4.18,6.91-6.26,12.53-6.26,2.92,0,5.43.58,7.54,1.75,2.11,1.12,3.84,2.76,5.18,4.92,1.35,2.11,2.34,4.69,2.96,7.74.67,3.01,1.01,6.38,1.01,10.1,0,7.99-1.41,14.07-4.24,18.25-2.78,4.18-6.94,6.26-12.46,6.26-2.96,0-5.5-.56-7.61-1.68-2.07-1.17-3.77-2.8-5.12-4.91-1.35-2.15-2.34-4.74-2.96-7.74-.63-3.05-.94-6.44-.94-10.17Zm8.89,0c0,2.38.13,4.6.4,6.67.27,2.02.72,3.77,1.35,5.25.63,1.48,1.41,2.65,2.36,3.5.99.85,2.2,1.28,3.64,1.28,2.6,0,4.56-1.32,5.86-3.97,1.3-2.65,1.95-6.89,1.95-12.73,0-2.29-.13-4.44-.4-6.46-.27-2.07-.72-3.84-1.35-5.32-.58-1.53-1.37-2.72-2.36-3.57-.99-.9-2.22-1.35-3.7-1.35-5.16,0-7.74,5.57-7.74,16.7Zm50.22-23.57h8.01v30.57c0,6.11-1.26,10.53-3.77,13.27-2.47,2.74-5.9,4.11-10.3,4.11-5.16,0-8.96-1.32-11.38-3.97-2.38-2.69-3.57-6.78-3.57-12.26v-31.72h8.48v30.24c0,3.68.49,6.26,1.48,7.74.99,1.44,2.63,2.15,4.92,2.15s3.77-.76,4.71-2.29c.94-1.57,1.41-4.11,1.41-7.61v-30.24Zm42.13,7.81h-11.11v39.33h-8.49v-39.33h-11.18v-7.81h30.78v7.81Zm35.93-7.81h8.01v30.57c0,6.11-1.26,10.53-3.77,13.27-2.47,2.74-5.9,4.11-10.3,4.11-5.16,0-8.96-1.32-11.38-3.97-2.38-2.69-3.57-6.78-3.57-12.26v-31.72h8.48v30.24c0,3.68.49,6.26,1.48,7.74.99,1.44,2.63,2.15,4.92,2.15s3.77-.76,4.71-2.29c.94-1.57,1.41-4.11,1.41-7.61v-30.24Zm30.35,35.02c0-1.44-.43-2.65-1.28-3.64-.85-1.03-1.93-2-3.23-2.9-1.26-.9-2.65-1.82-4.17-2.76-1.48-.94-2.87-2.04-4.17-3.3-1.26-1.26-2.31-2.74-3.17-4.44-.85-1.71-1.28-3.79-1.28-6.26,0-2.29.34-4.22,1.01-5.79.72-1.62,1.68-2.92,2.9-3.91,1.21-1.03,2.65-1.77,4.31-2.22,1.66-.49,3.43-.74,5.32-.74,2.29,0,4.42.22,6.4.67,1.98.45,3.61,1.06,4.92,1.82l-2.63,7.47c-.76-.54-1.91-1.03-3.43-1.48-1.48-.45-3.1-.67-4.85-.67s-3.1.36-4.04,1.08c-.94.72-1.41,1.77-1.41,3.17,0,1.26.43,2.38,1.28,3.37.85.94,1.91,1.86,3.16,2.76,1.3.9,2.69,1.84,4.18,2.83,1.53.94,2.92,2.07,4.18,3.37,1.3,1.26,2.38,2.76,3.23,4.51.85,1.71,1.28,3.75,1.28,6.13s-.36,4.45-1.08,6.2c-.67,1.75-1.66,3.21-2.96,4.38-1.26,1.12-2.78,1.98-4.58,2.56-1.8.58-3.79.88-5.99.88-2.78,0-5.23-.27-7.34-.81-2.07-.54-3.66-1.15-4.78-1.82l2.76-7.61c.9.54,2.13,1.08,3.7,1.62,1.57.54,3.26.81,5.05.81,4.49,0,6.73-1.75,6.73-5.25Z"/>
      </g>
    </g>
  </g>
</svg>