<?xml version="1.0" encoding="UTF-8"?>
<svg id="Layer_2" data-name="Layer 2" xmlns="http://www.w3.org/2000/svg" xmlns:xlink="http://www.w3.org/1999/xlink" viewBox="0 0 429 204">
  <defs>
    <style>
      .cls-1 {
        clip-path: url(#clippath);
      }

      .cls-2 {
        fill: none;
      }

      .cls-2, .cls-3, .cls-4, .cls-5 {
        stroke-width: 0px;
      }

      .cls-6 {
        mask: url(#mask);
      }

      .cls-3 {
        fill: #1b1e28;
      }

      .cls-4 {
        fill: #fff;
      }

      .cls-5 {
        fill: #f4f4f4;
      }
    </style>
    <clipPath id="clippath">
      <rect class="cls-2" width="429" height="204"/>
    </clipPath>
    <mask id="mask" x="-.01" y="0" width="429.01" height="204" maskUnits="userSpaceOnUse">
      <g id="mask0_204_4207" data-name="mask0 204 4207">
        <path class="cls-4" d="m428.71,0H0v204h428.71V0Z"/>
      </g>
    </mask>
  </defs>
  <g id="Layer_7" data-name="Layer 7">
    <g class="cls-1">
      <g>
        <g class="cls-6">
          <g>
            <path class="cls-3" d="m399.48,204H27.84l-.29-.79c-2.12-5.72-5.79-11.02-10.56-15.31-4.43-3.98-9.92-7.15-15.86-9.18l-.84-.27V55.59l.87-.27c4.76-1.52,11.7-4.62,17.58-10.68,5.39-5.54,7.75-11.36,8.78-15.27l.24-.89h371.76l.34.67c2.69,5.09,6.28,9.78,10.65,13.88,4.61,4.33,9.99,7.98,15.98,10.79l.69.31,1.83,127.49-.91.25c-5.83,1.66-11.19,4.25-15.87,7.65-5.16,3.75-9.42,8.51-12.34,13.8l-.36.64v.04h-.03Z"/>
            <path class="cls-5" d="m399.2,204H27.54l-.29-.79c-2.12-5.72-5.79-11.02-10.56-15.31-4.43-3.98-9.92-7.15-15.86-9.18l-.84-.27V55.59l.87-.27c4.76-1.52,11.7-4.62,17.58-10.68,5.39-5.54,7.75-11.36,8.78-15.27l.24-.89h371.76l.34.67c2.69,5.09,6.28,9.78,10.65,13.88,4.61,4.33,9.99,7.98,15.98,10.79l.69.31,1.84,127.49-.91.25c-5.83,1.66-11.19,4.25-15.87,7.65-5.16,3.75-9.42,8.51-12.34,13.8l-.36.64v.04h-.01Zm-369.74-2.27h368.11c3.08-5.31,7.45-10.12,12.67-13.91,4.71-3.43,10.02-6.05,15.83-7.82l-1.81-124.51c-6-2.89-11.35-6.57-15.99-10.94-4.37-4.11-7.97-8.76-10.74-13.81H29.53c-1.23,4.11-3.77,9.86-9.11,15.34-5.91,6.09-12.82,9.36-17.82,11.06v119.71c5.97,2.15,11.46,5.41,15.96,9.44,4.86,4.33,8.6,9.66,10.89,15.41v.03h.01Z"/>
            <path class="cls-5" d="m393.86,52.18c-.73,0-1.3-.5-1.3-1.12v-13.46c0-.62.57-1.12,1.3-1.12s1.3.5,1.3,1.12v13.46c0,.62-.57,1.12-1.3,1.12Z"/>
            <path class="cls-5" d="m393.86,156.27c-.73,0-1.3-.5-1.3-1.12v-26.02c0-.62.57-1.12,1.3-1.12s1.3.5,1.3,1.12v26.02c0,.62-.57,1.12-1.3,1.12Zm0-52.05c-.73,0-1.3-.5-1.3-1.12v-26.02c0-.62.57-1.12,1.3-1.12s1.3.5,1.3,1.12v26.02c0,.62-.57,1.12-1.3,1.12Z"/>
            <path class="cls-5" d="m393.86,195.76c-.73,0-1.3-.5-1.3-1.12v-13.46c0-.62.57-1.12,1.3-1.12s1.3.5,1.3,1.12v13.46c0,.62-.57,1.12-1.3,1.12Z"/>
            <path class="cls-5" d="m395.17,37.6h-2.62v13.46h2.62v-13.46Z"/>
            <path class="cls-5" d="m395.17,155.15h-2.62v-26.02h2.62v26.02Zm0-52.05h-2.62v-26.02h2.62v26.02Z"/>
            <path class="cls-5" d="m395.17,181.18h-2.62v13.46h2.62v-13.46Z"/>
            <path class="cls-5" d="m34.84,52.18c-.73,0-1.3-.5-1.3-1.12v-13.46c0-.62.57-1.12,1.3-1.12s1.3.5,1.3,1.12v13.46c0,.62-.57,1.12-1.3,1.12Z"/>
            <path class="cls-5" d="m34.84,156.27c-.73,0-1.3-.5-1.3-1.12v-26.02c0-.62.57-1.12,1.3-1.12s1.3.5,1.3,1.12v26.02c0,.62-.57,1.12-1.3,1.12Zm0-52.05c-.73,0-1.3-.5-1.3-1.12v-26.02c0-.62.57-1.12,1.3-1.12s1.3.5,1.3,1.12v26.02c0,.62-.57,1.12-1.3,1.12Z"/>
            <path class="cls-5" d="m34.84,195.76c-.73,0-1.3-.5-1.3-1.12v-13.46c0-.62.57-1.12,1.3-1.12s1.3.5,1.3,1.12v13.46c0,.62-.57,1.12-1.3,1.12Z"/>
            <path class="cls-5" d="m36.16,37.6h-2.62v13.46h2.62v-13.46Z"/>
            <path class="cls-5" d="m36.16,155.15h-2.62v-26.02h2.62v26.02Zm0-52.05h-2.62v-26.02h2.62v26.02Z"/>
            <path class="cls-5" d="m36.16,181.18h-2.62v13.46h2.62v-13.46Z"/>
          </g>
        </g>
        <path class="cls-5" d="m122.96,119.96h14.55v20.88c-1.66,1.57-3.61,2.72-5.86,3.43-2.2.67-4.4,1.01-6.6,1.01-2.65,0-5.05-.47-7.21-1.41s-3.99-2.4-5.52-4.38c-1.48-2.02-2.65-4.56-3.5-7.61-.81-3.1-1.21-6.8-1.21-11.11s.49-8.28,1.48-11.38c.99-3.1,2.29-5.61,3.91-7.54,1.66-1.98,3.57-3.39,5.72-4.24,2.2-.9,4.51-1.35,6.94-1.35,2.15,0,4.11.2,5.86.61,1.8.36,3.28.79,4.44,1.28l-1.75,7.34c-.9-.4-1.95-.74-3.17-1.01-1.17-.27-2.6-.4-4.31-.4-1.57,0-3.01.31-4.31.94-1.26.63-2.33,1.62-3.23,2.96-.85,1.35-1.53,3.1-2.02,5.25-.45,2.11-.67,4.65-.67,7.61,0,5.7.85,9.9,2.56,12.59,1.75,2.69,4.04,4.04,6.87,4.04.9,0,1.75-.13,2.56-.4.85-.27,1.59-.69,2.22-1.28v-9.63l-7.74-1.08v-5.12Zm38.58,13.74h-11.11l-2.76,10.64h-8.42l13.67-47.47h6.67l13.74,47.47h-8.89l-2.9-10.64Zm-9.29-7h7.81l-2.69-10.98-1.08-7.41h-.27l-1.15,7.47-2.63,10.91Zm49.02,17.64h-25.05v-47.14h8.49v39.33h16.57v7.81Zm28.54,0h-25.05v-47.14h8.49v39.33h16.57v7.81Zm3.49-47.14h23.57v7.81h-15.08v11.58h13.67v7.81h-13.67v12.12h15.35v7.81h-23.84v-47.14Zm28.94.47c1.84-.4,3.82-.7,5.93-.88,2.11-.18,3.93-.27,5.45-.27,1.93,0,3.82.2,5.66.61,1.84.36,3.46,1.06,4.85,2.09,1.44.99,2.58,2.36,3.43,4.11.9,1.71,1.35,3.88,1.35,6.53,0,3.82-.72,6.94-2.15,9.36-1.39,2.38-3.32,4.02-5.79,4.92l2.69,2.16,8.69,18.05h-9.77l-8.21-18.59-3.64-.88v19.46h-8.48v-46.67Zm8.48,21.41h2.9c2.11,0,3.7-.63,4.78-1.89,1.08-1.3,1.62-3.3,1.62-5.99,0-2.02-.45-3.66-1.35-4.92-.9-1.3-2.31-1.95-4.24-1.95-.72,0-1.41.02-2.09.07-.67.04-1.21.13-1.62.27v14.41Zm31.39,7.74l-12.66-29.63h10.1l6.53,17.84.67,5.12h.34l.74-5.25,6.4-17.71h9.09l-12.73,29.56v17.58h-8.49v-17.51Z"/>
      </g>
    </g>
  </g>
</svg>