<?xml version="1.0" encoding="UTF-8"?><svg id="Layer_1" xmlns="http://www.w3.org/2000/svg" width="25mm" height="25mm" viewBox="0 0 70.87 70.87"><defs><style>.cls-1{fill:#b5ff53;stroke-width:0px;}</style></defs><path class="cls-1" d="M35.43,28.37c-1.52,0-3.01.41-4.27,1.19-1.26.78-2.25,1.88-2.83,3.17s-.73,2.71-.44,4.08c.3,1.37,1.03,2.63,2.1,3.62,1.08.99,2.44,1.66,3.94,1.93,1.49.27,3.04.13,4.44-.4,1.4-.53,2.61-1.44,3.45-2.6.84-1.16,1.3-2.53,1.3-3.93,0-.93-.2-1.85-.59-2.7-.39-.86-.95-1.64-1.67-2.29-.71-.66-1.56-1.18-2.49-1.53-.93-.36-1.93-.54-2.94-.54ZM66.22,21.38c-.02-2.2-.46-4.38-1.3-6.44-.62-1.51-1.58-2.88-2.82-4.02s-2.73-2.02-4.37-2.6c-2.24-.78-4.61-1.18-7.01-1.2-4-.2-5.18-.2-15.28-.2s-11.28,0-15.28.2c-2.39.01-4.77.42-7.01,1.2-1.64.57-3.13,1.46-4.37,2.6-1.24,1.14-2.2,2.51-2.82,4.02-.84,2.06-1.29,4.24-1.3,6.44-.22,3.68-.22,4.76-.22,14.05s0,10.37.22,14.05c.03,2.21.47,4.4,1.3,6.47.62,1.5,1.58,2.86,2.82,3.99,1.23,1.15,2.73,2.03,4.37,2.59,2.24.78,4.61,1.18,7.01,1.2,4,.2,5.18.2,15.28.2s11.28,0,15.28-.2c2.39-.01,4.77-.42,7.01-1.2,1.64-.56,3.14-1.45,4.37-2.59,1.24-1.13,2.2-2.49,2.82-3.99.84-2.07,1.28-4.26,1.3-6.47.22-3.68.22-4.76.22-14.05s0-10.37-.22-14.05ZM58.34,44.18c-.1,1.76-.51,3.49-1.21,5.13-.6,1.37-1.5,2.61-2.63,3.65-1.13,1.04-2.49,1.87-3.97,2.42-1.8.61-3.69.95-5.61,1h-18.97c-1.92-.05-3.81-.39-5.61-1-1.54-.53-2.93-1.36-4.06-2.45-1.12-1.02-1.99-2.26-2.54-3.62-.66-1.65-1.02-3.4-1.05-5.16v-17.44c.03-1.76.39-3.51,1.05-5.16.57-1.41,1.48-2.69,2.67-3.73,1.12-1.03,2.46-1.82,3.94-2.34,1.8-.61,3.69-.95,5.61-1h18.97c1.92.05,3.81.39,5.61,1,1.54.53,2.93,1.36,4.06,2.45,1.12,1.02,1.99,2.26,2.54,3.62.66,1.65,1.03,3.4,1.08,5.16v8.72c0,5.87.22,6.47.12,8.72v.03ZM53.38,22.98c-.37-.92-.95-1.76-1.71-2.45-.75-.69-1.66-1.23-2.67-1.57-1.37-.44-2.82-.65-4.28-.63h-18.6c-1.46.01-2.91.26-4.28.74-.99.32-1.89.84-2.64,1.51-.75.67-1.34,1.48-1.73,2.37-.45,1.27-.67,2.6-.65,3.93v17.1c.03,1.34.3,2.67.81,3.93.37.92.95,1.76,1.71,2.45.75.69,1.66,1.23,2.67,1.57,1.32.45,2.71.7,4.12.74h18.6c1.46-.01,2.91-.26,4.28-.74,1-.34,1.91-.87,2.67-1.57.75-.69,1.34-1.53,1.71-2.45.52-1.26.79-2.59.81-3.93v-17.1c0-1.35-.27-2.68-.81-3.93v.03ZM35.43,46.32c-1.55,0-3.09-.28-4.53-.83-1.43-.55-2.74-1.35-3.84-2.36-1.1-1.01-1.97-2.21-2.56-3.53-.59-1.32-.89-2.74-.89-4.16,0-2.15.7-4.26,2-6.05,1.3-1.79,3.15-3.19,5.32-4.01,2.17-.82,4.55-1.04,6.85-.61,2.3.42,4.41,1.46,6.06,2.99,1.65,1.53,2.78,3.47,3.23,5.58.45,2.11.21,4.3-.69,6.29-.9,1.99-2.42,3.69-4.38,4.88-1.95,1.19-4.24,1.83-6.59,1.82ZM47.83,26.68c-.69-.07-1.32-.36-1.78-.84-.46-.47-.72-1.08-.72-1.72s.25-1.24.72-1.72c.46-.47,1.1-.77,1.78-.84.69.07,1.32.36,1.78.84.46.47.72,1.08.72,1.72s-.26,1.24-.72,1.72c-.46.47-1.1.77-1.78.84Z"/></svg>