<svg width="62" height="57" viewBox="0 0 62 57" fill="none" xmlns="http://www.w3.org/2000/svg">
<path d="M31 21.432C29.4795 21.432 27.9931 21.8465 26.7288 22.6232C25.4645 23.3998 24.4791 24.5037 23.8972 25.7952C23.3153 27.0867 23.1631 28.5078 23.4597 29.8789C23.7564 31.25 24.4886 32.5094 25.5638 33.4978C26.6389 34.4863 28.0088 35.1595 29.5001 35.4322C30.9915 35.7049 32.5373 35.5649 33.9421 35.03C35.3469 34.495 36.5476 33.5891 37.3923 32.4268C38.2371 31.2644 38.688 29.8979 38.688 28.5C38.688 27.5718 38.4891 26.6527 38.1028 25.7952C37.7164 24.9377 37.1501 24.1585 36.4362 23.5022C35.7223 22.8458 34.8748 22.3252 33.9421 21.97C33.0093 21.6148 32.0096 21.432 31 21.432ZM61.783 14.4495C61.7667 12.2486 61.3259 10.0678 60.481 8.0085C59.8588 6.50159 58.896 5.13312 57.6563 3.99338C56.4166 2.85364 54.9281 1.96855 53.289 1.3965C51.049 0.619772 48.6769 0.214494 46.283 0.1995C42.284 -1.91107e-07 41.106 0 31 0C20.894 0 19.716 -1.91107e-07 15.717 0.1995C13.323 0.214494 10.951 0.619772 8.711 1.3965C7.07191 1.96855 5.58339 2.85364 4.34367 3.99338C3.10396 5.13312 2.14122 6.50159 1.519 8.0085C0.674138 10.0678 0.233309 12.2486 0.217 14.4495C-2.07871e-07 18.126 0 19.209 0 28.5C0 37.791 -2.07871e-07 38.874 0.217 42.5505C0.250368 44.7591 0.6906 46.9466 1.519 49.02C2.13847 50.52 3.1004 51.8806 4.34 53.01C5.5744 54.1566 7.06611 55.0417 8.711 55.6035C10.951 56.3802 13.323 56.7855 15.717 56.8005C19.716 57 20.894 57 31 57C41.106 57 42.284 57 46.283 56.8005C48.6769 56.7855 51.049 56.3802 53.289 55.6035C54.9339 55.0417 56.4256 54.1566 57.66 53.01C58.8996 51.8806 59.8615 50.52 60.481 49.02C61.325 46.9506 61.7658 44.7606 61.783 42.5505C62 38.874 62 37.791 62 28.5C62 19.209 62 18.126 61.783 14.4495ZM53.909 37.2495C53.8095 39.0082 53.4012 40.7406 52.7 42.3795C52.0982 43.7466 51.2035 44.9885 50.0692 46.0314C48.9349 47.0742 47.584 47.8967 46.097 48.45C44.2975 49.0587 42.4026 49.3956 40.486 49.4475C38.037 49.4475 37.386 49.4475 31 49.4475C24.614 49.4475 23.963 49.4475 21.514 49.4475C19.5974 49.3956 17.7025 49.0587 15.903 48.45C14.3657 47.9248 12.9775 47.0869 11.842 45.999C10.7188 44.9766 9.85132 43.7414 9.3 42.3795C8.63523 40.7268 8.27888 38.9828 8.246 37.221C8.246 34.9695 8.246 34.371 8.246 28.5C8.246 22.629 8.246 22.0305 8.246 19.779C8.27888 18.0172 8.63523 16.2732 9.3 14.6205C9.87127 13.2072 10.7826 11.9309 11.966 10.887C13.083 9.85993 14.4251 9.06327 15.903 8.55C17.7025 7.94126 19.5974 7.6044 21.514 7.5525C23.963 7.5525 24.614 7.5525 31 7.5525C37.386 7.5525 38.037 7.5525 40.486 7.5525C42.4026 7.6044 44.2975 7.94126 46.097 8.55C47.6343 9.0752 49.0225 9.91308 50.158 11.001C51.2812 12.0234 52.1487 13.2586 52.7 14.6205C53.3621 16.2749 53.7285 18.0169 53.785 19.779C53.785 22.0305 53.785 22.629 53.785 28.5C53.785 34.371 54.002 34.9695 53.909 37.221V37.2495ZM48.949 16.0455C48.5799 15.1249 47.998 14.2889 47.2433 13.5951C46.4887 12.9013 45.5793 12.3663 44.578 12.027C43.2031 11.5888 41.755 11.3766 40.3 11.4C37.882 11.4 37.2 11.4 31 11.4C24.8 11.4 24.118 11.4 21.7 11.4C20.2376 11.4131 18.7893 11.664 17.422 12.141C16.436 12.4649 15.5362 12.9781 14.7826 13.6464C14.029 14.3147 13.4387 15.1228 13.051 16.017C12.6008 17.2863 12.3809 18.615 12.4 19.95C12.4 22.173 12.4 22.8 12.4 28.5C12.4 34.2 12.4 34.827 12.4 37.05C12.4307 38.3929 12.7031 39.7219 13.206 40.983C13.5751 41.9036 14.157 42.7396 14.9117 43.4334C15.6663 44.1272 16.5757 44.6622 17.577 45.0015C18.8997 45.4487 20.2915 45.6988 21.7 45.7425C24.118 45.7425 24.8 45.7425 31 45.7425C37.2 45.7425 37.882 45.7425 40.3 45.7425C41.7624 45.7294 43.2107 45.4785 44.578 45.0015C45.5793 44.6622 46.4887 44.1272 47.2433 43.4334C47.998 42.7396 48.5799 41.9036 48.949 40.983C49.4678 39.7259 49.7407 38.3944 49.755 37.05C49.755 34.827 49.755 34.2 49.755 28.5C49.755 22.8 49.755 22.173 49.755 19.95C49.7559 18.6042 49.4825 17.2702 48.949 16.017V16.0455ZM31 39.387C29.4463 39.387 27.908 39.1052 26.473 38.5577C25.038 38.0103 23.7345 37.2079 22.6374 36.1965C21.5402 35.1852 20.6709 33.9848 20.0791 32.6641C19.4874 31.3434 19.1849 29.9284 19.189 28.5C19.189 26.3455 19.8843 24.2395 21.1869 22.4486C22.4895 20.6576 24.3408 19.2622 26.5065 18.439C28.6721 17.6159 31.0547 17.4019 33.3527 17.8243C35.6506 18.2467 37.7606 19.2864 39.4155 20.8119C41.0704 22.3373 42.1958 24.2798 42.6492 26.3936C43.1026 28.5073 42.8637 30.6972 41.9627 32.6861C41.0616 34.6749 39.539 36.3732 37.5875 37.5661C35.636 38.7589 33.3434 39.3926 31 39.387ZM43.4 19.7505C42.7147 19.6838 42.0805 19.3863 41.6196 18.9154C41.1587 18.4444 40.9037 17.8333 40.9037 17.1997C40.9037 16.5662 41.1587 15.9551 41.6196 15.4841C42.0805 15.0132 42.7147 14.7157 43.4 14.649C44.0853 14.7157 44.7195 15.0132 45.1804 15.4841C45.6413 15.9551 45.8963 16.5662 45.8963 17.1997C45.8963 17.8333 45.6413 18.4444 45.1804 18.9154C44.7195 19.3863 44.0853 19.6838 43.4 19.7505Z" fill="#B5FF53"/>
</svg>
