<?xml version="1.0" encoding="UTF-8"?>
<svg id="Layer_2" data-name="Layer 2" xmlns="http://www.w3.org/2000/svg" viewBox="0 0 1027.37 471.15">
  <defs>
    <style>
      .cls-1, .cls-2, .cls-3, .cls-4, .cls-5 {
        fill: none;
      }

      .cls-1, .cls-6, .cls-7, .cls-8 {
        stroke-width: 0px;
      }

      .cls-9, .cls-10, .cls-11, .cls-2, .cls-12, .cls-13, .cls-3, .cls-4, .cls-5, .cls-14 {
        stroke-miterlimit: 10;
      }

      .cls-9, .cls-10, .cls-3, .cls-4 {
        stroke-width: 2px;
      }

      .cls-9, .cls-11, .cls-2, .cls-3, .cls-5, .cls-14 {
        stroke: #e93993;
      }

      .cls-9, .cls-11, .cls-13, .cls-7 {
        fill: #fff;
      }

      .cls-10, .cls-12, .cls-13, .cls-4 {
        stroke: #fff;
      }

      .cls-10, .cls-14, .cls-8 {
        fill: #e93993;
      }

      .cls-11, .cls-5 {
        stroke-width: 4px;
      }

      .cls-2 {
        stroke-width: 5px;
      }

      .cls-12 {
        fill: #01924a;
      }

      .cls-14 {
        stroke-width: 3px;
      }

      .cls-6 {
        fill: #4d66ac;
      }
    </style>
  </defs>
  <g id="Layer_7" data-name="Layer 7">
    <g>
      <path class="cls-11" d="m4.99,5.6c.86-1.39.76-3.13.73-3.41h47.41c-.02.25-.19,2.38.93,4.03,1.11,1.62,2.54,1.41,2.72,1.37.05,4.38.08,8.81.09,13.27.01,4.2.01,8.37,0,12.51-.24,0-1.26,0-2.06,1.1-.82,1.11-1.1,2.92-.72,4.61H5.57c-.01-.34-.1-2.07-1.11-3.42-1.03-1.37-2.24-1.31-2.46-1.3V6.89c1.11.38,2.25-.11,2.97-1.3h.01Z"/>
      <path class="cls-3" d="m9.61,30.41v6.26"/>
      <path class="cls-3" d="m9.61,22.22v6.26"/>
      <path class="cls-3" d="m9.61,13.08v6.26"/>
      <path class="cls-3" d="m9.61,4.58v6.26"/>
      <path class="cls-3" d="m49.06,30.48v6.26"/>
      <path class="cls-3" d="m49.06,22.29v6.26"/>
      <path class="cls-3" d="m49.06,13.15v6.26"/>
      <path class="cls-3" d="m49.06,4.67v6.24"/>
    </g>
    <g>
      <path class="cls-8" d="m28.36,94.6c.06-9.45.1-18.92.16-28.38-1.47-.06-10.73-.23-17.89,8.16-6.82,7.99-6.68,17.82-6.64,19.56,8.12.21,16.24.44,24.37.65.06,9.02.1,18.05.16,27.07,1.54,0,11.02-.11,18.13-8.85,6.26-7.69,6.4-16.81,6.39-18.88-8.24.21-16.46.44-24.7.65v.03Z"/>
      <path class="cls-7" d="m28.36,94.6c8.24-.18,16.46-.37,24.7-.55,0-1.94-.22-11.51-7-19.35-7.03-8.14-15.9-8.37-17.53-8.38-.06,9.43-.11,18.85-.16,28.28-8.12-.18-16.24-.37-24.37-.55,0,1.75.09,12.46,7.83,20.5,6.81,7.09,14.87,7.24,16.69,7.23-.06-9.06-.1-18.12-.16-27.17h.01Z"/>
    </g>
    <path class="cls-6" d="m28.53,317.2c-4.14,11.33-7.52,20.26-9.72,25.96-5.04,13.16-6.89,17.46-5.21,23.17,1.79,6.07,7.55,13.83,15.32,13.88,7.73.03,13.6-7.6,15.46-13.68,1.6-5.21.25-9.41-5.74-24.52-3.63-9.15-7.04-17.47-10.12-24.82h.01Z"/>
    <path class="cls-8" d="m48.93,430.49c0-.1-.07-.81-.66-1.15-.18-.1-.36-.14-.5-.15h-4.65c-.04-3.52-.07-7.03-.11-10.55-.13-.64-.36-1.54-.8-2.54-.36-.83-2.27-4.97-7.01-7.15-5.02-2.3-11.09-1.43-15.05,1.53-3.09,2.31-4.37,5.52-4.57,6.04-.46,1.2-.66,2.27-.77,3.04v9.53h-4.19c-.08,0-.64-.08-1.12.28-.56.43-.51,1.08-.51,1.15v24.13c.08.46.88,4.32,4.09,5.51.46.17,1.08.32,1.84.34,9.5,0,19.01,0,28.51-.01.39,0,.89-.04,1.44-.22,2.72-.87,3.64-4.06,3.81-4.64.21-.74.28-1.37.31-1.81-.04-7.76-.07-15.51-.11-23.27l.04-.04Zm-10.45-9.74c-.01,2.73-.02,5.46-.05,8.2-6.23.01-12.45.04-18.68.06-.06-2.65-.12-5.31-.18-7.96.12-.9.58-3.36,2.6-5.55.65-.7,2.76-2.77,6.15-3.07.56-.06,4.39-.32,7.39,2.65,2.21,2.18,2.66,4.82,2.76,5.66h0Zm-5.97,18.89c.46,1.6-.33,3.35-1.93,4.11-.02,3-.04,6-.06,9-1.12-.03-2.23-.04-3.33-.07.04-2.97.06-5.96.09-8.93-1.61-.83-2.4-2.61-1.92-4.16.46-1.5,1.95-2.37,3.35-2.44,1.55-.08,3.31.8,3.81,2.49Z"/>
    <path class="cls-8" d="m48,158.97l-22.18,22.29,13.79,3.55-23.33,25.68,6.96-20.96-13.25-3.82c6.03-10.72,12.07-21.42,18.1-32.13,6.63,1.79,13.26,3.59,19.89,5.38h.01Z"/>
    <path class="cls-11" d="m8.47,248.33v40.41c-.02.24-.08,1.35.57,2.37.65,1,1.56,1.21,1.76,1.25,16.74.25,28.95.28,30.72.08.37-.04,1.33-.16,1.9-.99.47-.68.49-1.52.5-1.87.02-1.86.17-18.4.33-41.12-2.16,0-4.32-.01-6.46-.03.14,4.07-2.67,7.48-6.04,7.44-3.34-.04-6.07-3.45-5.9-7.48-5.8-.03-11.58-.06-17.38-.07h.01Z"/>
    <path class="cls-11" d="m8.47,248.33c-.84-.66-2.33-2.07-3.35-4.47-.21-.51-2.11-5.17-.5-8.55,1.63-3.41,6.53-4.95,11.44-2.37.72-1.45,1.57-2.34,2.16-2.85.22-.2,3.6-3.07,7.29-1.48,1.13.49,1.94,1.24,2.4,1.77.56-.68,2.31-2.58,5.06-2.94.38-.06,4.09-.51,6.22,2.17,1.07,1.35,2.05,3.9,2.08,3.93.02,0,2.3-.06,3.57.49,1.97.85,3.42,3.9,3.49,6.79.07,3.16-1.53,6.14-4.06,7.68-2.16,0-4.32-.01-6.46-.03,0,3.89-2.43,7.04-5.31,7.41-3.31.42-6.6-2.93-6.64-7.45-5.8-.03-11.58-.06-17.38-.07v-.04Z"/>
    <path class="cls-7" d="m43.99,282.63c.85.1,2.15.2,3.72.1,2.89-.18,4.81-.3,6.02-1.89.35-.45,1.17-1.72,1.1-4.27.02-4.59.05-9.19.07-13.78-.09-1.04-.35-1.83-.64-2.41-1.5-3.06-5.51-4.27-10.06-3.28-.07,8.51-.14,17.04-.21,25.55"/>
    <path class="cls-5" d="m43.99,282.63c.85.1,2.15.2,3.72.1,2.89-.18,4.81-.3,6.02-1.89.35-.45,1.17-1.72,1.1-4.27.02-4.59.05-9.19.07-13.78-.09-1.04-.35-1.83-.64-2.41-1.5-3.06-5.51-4.27-10.06-3.28-.07,8.51-.14,17.04-.21,25.55"/>
    <path class="cls-5" d="m17.39,263.56v15.78"/>
    <path class="cls-5" d="m26.37,261.87v20.05"/>
    <path class="cls-5" d="m35.18,264v15.78"/>
    <path class="cls-7" d="m775.33,187.75h12.88v3.71h-12.88v-3.71Zm0,6.65h12.88v3.71h-12.88v-3.71Zm22.97-13.79c.84-.19,1.76-.33,2.76-.42,1-.12,2.01-.18,3.01-.18,1.07,0,2.12.1,3.15.32,1.05.19,1.98.57,2.8,1.15.82.58,1.48,1.41,1.99,2.49.51,1.05.77,2.43.77,4.13,0,1.54-.22,2.85-.66,3.92-.42,1.07-.99,1.95-1.72,2.62-.72.68-1.56,1.17-2.52,1.47-.93.3-1.9.46-2.9.46h-1.12c-.23-.02-.47-.05-.7-.07-.21-.02-.36-.05-.46-.07v8.43h-4.41v-24.26Zm4.41,11.87c.14.05.4.09.77.14.4.02.66.03.8.03.51,0,1-.07,1.47-.21.47-.14.88-.37,1.23-.7.37-.35.66-.82.88-1.4.21-.61.32-1.36.32-2.27,0-.77-.11-1.42-.32-1.96-.19-.54-.46-.96-.8-1.26-.33-.33-.71-.56-1.16-.7-.44-.14-.91-.21-1.4-.21-.72,0-1.32.06-1.79.18v8.37Zm12.27-12.11h12.25v4.06h-7.84v6.02h7.11v4.06h-7.11v6.3h7.98v4.06h-12.39v-24.5Zm15.04.24c.96-.21,1.98-.36,3.08-.46,1.1-.09,2.04-.14,2.83-.14,1,0,1.98.1,2.94.32.96.19,1.8.55,2.52,1.08.75.51,1.34,1.23,1.78,2.14.47.89.7,2.02.7,3.4,0,1.98-.37,3.6-1.12,4.86-.72,1.24-1.73,2.09-3.01,2.56l1.4,1.12,4.52,9.38h-5.08l-4.27-9.66-1.89-.46v10.12h-4.41v-24.26Zm4.41,11.13h1.51c1.1,0,1.92-.33,2.48-.98.56-.68.84-1.71.84-3.11,0-1.05-.23-1.9-.7-2.56-.47-.68-1.2-1.01-2.21-1.01-.37,0-.73.01-1.08.04-.35.02-.63.07-.84.14v7.49Zm13.19-11.38h12.25v4.06h-7.84v6.37h7.21v4.06h-7.21v10.01h-4.41v-24.5Zm14.1,12.25c0-4.15.71-7.32,2.14-9.49,1.42-2.17,3.59-3.26,6.51-3.26,1.52,0,2.82.3,3.92.91,1.1.58,1.99,1.43,2.7,2.55.7,1.1,1.21,2.44,1.54,4.03.35,1.56.53,3.31.53,5.25,0,4.15-.74,7.32-2.21,9.49-1.45,2.17-3.6,3.25-6.47,3.25-1.54,0-2.86-.29-3.96-.88-1.07-.61-1.96-1.46-2.66-2.55-.7-1.12-1.21-2.46-1.54-4.03-.33-1.59-.49-3.35-.49-5.28Zm4.62,0c0,1.24.07,2.39.21,3.46.14,1.05.37,1.96.7,2.73.33.77.74,1.38,1.23,1.82.51.44,1.14.66,1.89.66,1.35,0,2.37-.69,3.04-2.07s1.02-3.58,1.02-6.61c0-1.19-.07-2.31-.21-3.36-.14-1.07-.37-2-.7-2.76-.3-.79-.71-1.41-1.22-1.86-.51-.47-1.16-.7-1.92-.7-2.68,0-4.03,2.89-4.03,8.68Zm15.29-12.01c.96-.21,1.98-.36,3.08-.46,1.1-.09,2.04-.14,2.83-.14,1,0,1.98.1,2.94.32.96.19,1.8.55,2.52,1.08.75.51,1.34,1.23,1.78,2.14.47.89.7,2.02.7,3.4,0,1.98-.37,3.6-1.12,4.86-.72,1.24-1.73,2.09-3.01,2.56l1.4,1.12,4.52,9.38h-5.08l-4.27-9.66-1.89-.46v10.12h-4.41v-24.26Zm4.41,11.13h1.51c1.1,0,1.92-.33,2.48-.98.56-.68.84-1.71.84-3.11,0-1.05-.23-1.9-.7-2.56-.47-.68-1.2-1.01-2.21-1.01-.37,0-.73.01-1.08.04-.35.02-.63.07-.84.14v7.49Zm28.87.49l.49-4.69h-.17l-1.29,4.2-3.99,8.61h-1.47l-4.23-8.65-1.29-4.24h-.21l.66,4.73v12.67h-4.16v-24.5h4.23l5.11,10.6.84,3.04h.14l.8-3.12,4.79-10.53h4.17v24.5h-4.41v-12.64Zm17.47,7.11h-5.77l-1.43,5.53h-4.38l7.1-24.68h3.47l7.14,24.68h-4.62l-1.51-5.53Zm-4.83-3.64h4.06l-1.4-5.71-.56-3.85h-.14l-.59,3.88-1.36,5.67Zm17.85-2.87l-1.61-4.3h-.18l.56,4.24v12.11h-4.16v-24.68h3.4l7.03,12.32,1.51,4.24h.21l-.56-4.16v-12.21h4.16v24.67h-3.4l-6.96-12.21Zm27.41,11.06c-.61.51-1.42.89-2.45,1.12-1,.23-2.01.35-3.01.35-1.26,0-2.44-.21-3.53-.63-1.07-.44-2.02-1.17-2.84-2.17-.82-1-1.46-2.32-1.92-3.96-.47-1.63-.7-3.64-.7-6.02s.26-4.53.77-6.16c.54-1.63,1.22-2.93,2.07-3.88.86-.98,1.84-1.67,2.94-2.07s2.21-.6,3.33-.6,2.14.09,2.97.28c.86.19,1.56.4,2.1.63l-.88,3.88c-.44-.23-.97-.41-1.58-.52-.58-.14-1.28-.21-2.1-.21-1.61,0-2.85.7-3.71,2.1-.86,1.4-1.3,3.59-1.3,6.58,0,1.28.09,2.46.28,3.53.21,1.05.53,1.96.95,2.73.44.77.99,1.36,1.64,1.78.68.42,1.48.63,2.42.63.82,0,1.52-.1,2.1-.32.58-.23,1.11-.5,1.58-.8l.88,3.71Zm2.1-23.52h12.25v4.06h-7.84v6.02h7.11v4.06h-7.11v6.3h7.98v4.06h-12.39v-24.5Zm23.62,18.2c0-.75-.23-1.38-.67-1.89-.44-.54-1-1.04-1.68-1.51-.65-.47-1.38-.94-2.17-1.43-.77-.49-1.49-1.06-2.17-1.71-.65-.65-1.2-1.42-1.65-2.31-.44-.89-.66-1.97-.66-3.26,0-1.19.17-2.19.52-3.01.37-.84.88-1.52,1.51-2.03.63-.54,1.38-.92,2.24-1.15.86-.26,1.79-.38,2.77-.38,1.2,0,2.29.12,3.33.35,1.03.23,1.88.55,2.56.94l-1.37,3.89c-.4-.28-.99-.54-1.78-.77-.77-.23-1.61-.35-2.52-.35s-1.61.19-2.1.56-.73.92-.73,1.65c0,.65.22,1.24.66,1.75.44.49.99.97,1.65,1.43.68.47,1.4.96,2.17,1.47.79.49,1.52,1.07,2.17,1.75.68.65,1.24,1.43,1.68,2.35.44.89.67,1.95.67,3.18s-.19,2.31-.56,3.22c-.35.91-.87,1.67-1.54,2.28-.66.58-1.45,1.03-2.38,1.33-.94.3-1.98.46-3.12.46-1.45,0-2.72-.14-3.82-.42-1.07-.28-1.9-.6-2.49-.94l1.43-3.96c.47.28,1.11.56,1.93.84.82.28,1.69.42,2.62.42,2.33,0,3.51-.91,3.51-2.73Z"/>
    <path class="cls-7" d="m775.33,275.16h12.88v3.71h-12.88v-3.71Zm0,6.65h12.88v3.71h-12.88v-3.71Zm22.97-13.79c.84-.19,1.76-.33,2.76-.42,1-.12,2.01-.18,3.01-.18,1.07,0,2.12.11,3.15.32,1.05.19,1.98.57,2.8,1.15.82.58,1.48,1.41,1.99,2.49.51,1.05.77,2.43.77,4.13,0,1.54-.22,2.85-.66,3.92-.42,1.07-.99,1.95-1.72,2.62-.72.68-1.56,1.17-2.52,1.47-.93.3-1.9.45-2.9.45h-1.12c-.23-.02-.47-.05-.7-.07-.21-.02-.36-.05-.46-.07v8.43h-4.41v-24.26Zm4.41,11.87c.14.05.4.09.77.14.4.02.66.04.8.04.51,0,1-.07,1.47-.21.47-.14.88-.37,1.23-.7.37-.35.66-.82.88-1.4.21-.61.32-1.36.32-2.27,0-.77-.11-1.42-.32-1.96-.19-.54-.46-.96-.8-1.26-.33-.33-.71-.56-1.16-.7-.44-.14-.91-.21-1.4-.21-.72,0-1.32.06-1.79.17v8.37Zm11.44.14c0-4.15.71-7.32,2.14-9.48,1.42-2.17,3.59-3.26,6.51-3.26,1.52,0,2.82.3,3.92.91,1.1.58,1.99,1.43,2.7,2.55.7,1.1,1.21,2.44,1.54,4.02.35,1.56.53,3.31.53,5.25,0,4.15-.73,7.32-2.21,9.49-1.45,2.17-3.6,3.25-6.47,3.25-1.54,0-2.86-.29-3.96-.88-1.07-.61-1.96-1.46-2.66-2.55-.7-1.12-1.21-2.46-1.54-4.02-.33-1.59-.49-3.35-.49-5.29Zm4.62,0c0,1.24.07,2.39.21,3.46.14,1.05.37,1.96.7,2.73.33.77.73,1.38,1.22,1.82.51.44,1.14.66,1.89.66,1.35,0,2.37-.69,3.04-2.07.68-1.38,1.02-3.58,1.02-6.61,0-1.19-.07-2.31-.21-3.36-.14-1.07-.37-2-.7-2.77-.3-.79-.71-1.41-1.22-1.86-.51-.47-1.16-.7-1.92-.7-2.68,0-4.03,2.89-4.03,8.68Zm15.29-12.01c.84-.19,1.76-.33,2.76-.42,1-.12,2.01-.18,3.01-.18,1.07,0,2.12.11,3.15.32,1.05.19,1.98.57,2.8,1.15.82.58,1.48,1.41,1.99,2.49.51,1.05.77,2.43.77,4.13,0,1.54-.22,2.85-.67,3.92-.42,1.07-.99,1.95-1.71,2.62-.72.68-1.56,1.17-2.52,1.47-.93.3-1.9.45-2.9.45h-1.12c-.23-.02-.47-.05-.7-.07-.21-.02-.36-.05-.46-.07v8.43h-4.41v-24.26Zm4.41,11.87c.14.05.4.09.77.14.4.02.66.04.8.04.51,0,1-.07,1.47-.21.47-.14.88-.37,1.23-.7.37-.35.66-.82.88-1.4.21-.61.32-1.36.32-2.27,0-.77-.11-1.42-.32-1.96-.19-.54-.46-.96-.8-1.26-.33-.33-.71-.56-1.16-.7-.44-.14-.91-.21-1.4-.21-.72,0-1.32.06-1.78.17v8.37Zm25.89,11.41c-.61.51-1.42.89-2.45,1.12-1,.23-2.01.35-3.01.35-1.26,0-2.44-.21-3.54-.63-1.07-.44-2.02-1.17-2.83-2.17-.82-1-1.46-2.32-1.92-3.95-.47-1.63-.7-3.64-.7-6.02s.26-4.53.77-6.16c.54-1.63,1.23-2.93,2.07-3.88.86-.98,1.84-1.67,2.94-2.07,1.1-.4,2.21-.6,3.33-.6s2.14.09,2.98.28c.86.19,1.56.4,2.1.63l-.88,3.88c-.44-.23-.97-.41-1.58-.52-.58-.14-1.28-.21-2.1-.21-1.61,0-2.85.7-3.71,2.1-.86,1.4-1.29,3.59-1.29,6.58,0,1.28.09,2.46.28,3.54.21,1.05.53,1.96.95,2.73.44.77.99,1.36,1.65,1.78.68.42,1.48.63,2.41.63.82,0,1.52-.1,2.1-.32.58-.23,1.11-.5,1.57-.8l.88,3.71Zm.55-11.27c0-4.15.71-7.32,2.14-9.48,1.42-2.17,3.59-3.26,6.51-3.26,1.52,0,2.82.3,3.92.91,1.1.58,1.99,1.43,2.7,2.55.7,1.1,1.21,2.44,1.54,4.02.35,1.56.52,3.31.52,5.25,0,4.15-.73,7.32-2.2,9.49-1.45,2.17-3.61,3.25-6.48,3.25-1.54,0-2.86-.29-3.95-.88-1.07-.61-1.96-1.46-2.66-2.55-.7-1.12-1.21-2.46-1.54-4.02-.33-1.59-.49-3.35-.49-5.29Zm4.62,0c0,1.24.07,2.39.21,3.46.14,1.05.37,1.96.7,2.73.33.77.73,1.38,1.23,1.82.51.44,1.14.66,1.89.66,1.35,0,2.37-.69,3.05-2.07.68-1.38,1.01-3.58,1.01-6.61,0-1.19-.07-2.31-.21-3.36-.14-1.07-.37-2-.7-2.77-.3-.79-.71-1.41-1.22-1.86-.51-.47-1.16-.7-1.93-.7-2.68,0-4.02,2.89-4.02,8.68Zm15.28-12.01c.96-.21,1.98-.36,3.08-.45,1.1-.09,2.04-.14,2.84-.14,1,0,1.98.11,2.94.32.96.19,1.8.55,2.52,1.08.75.51,1.34,1.23,1.79,2.14.47.89.7,2.02.7,3.39,0,1.98-.37,3.61-1.12,4.87-.72,1.24-1.73,2.09-3.01,2.55l1.4,1.12,4.52,9.38h-5.08l-4.27-9.66-1.89-.45v10.11h-4.41v-24.26Zm4.41,11.13h1.51c1.1,0,1.92-.33,2.48-.98.56-.68.84-1.71.84-3.11,0-1.05-.23-1.9-.7-2.55-.47-.68-1.2-1.02-2.21-1.02-.37,0-.73.01-1.09.04-.35.02-.63.07-.84.14v7.49Zm18.58,1.08l-1.61-4.3h-.17l.56,4.24v12.11h-4.16v-24.67h3.39l7.04,12.32,1.51,4.24h.21l-.56-4.17v-12.21h4.17v24.67h-3.4l-6.96-12.21Z"/>
    <path class="cls-7" d="m775.33,364.59h12.88v3.71h-12.88v-3.71Zm0,6.65h12.88v3.71h-12.88v-3.71Zm22.97-14.04h12.25v4.06h-7.84v6.37h7.21v4.06h-7.21v10.01h-4.41v-24.5Zm15.05,0h4.41v24.5h-4.41v-24.5Zm7.95.24c.96-.21,1.98-.36,3.08-.45,1.1-.09,2.04-.14,2.83-.14,1,0,1.98.11,2.94.32.96.19,1.8.55,2.52,1.08.75.51,1.34,1.23,1.78,2.14.47.89.7,2.02.7,3.39,0,1.98-.37,3.61-1.12,4.87-.72,1.24-1.73,2.09-3.01,2.55l1.4,1.12,4.52,9.38h-5.08l-4.27-9.66-1.89-.45v10.11h-4.41v-24.26Zm4.41,11.13h1.51c1.1,0,1.92-.33,2.48-.98.56-.68.84-1.71.84-3.11,0-1.05-.23-1.9-.7-2.55-.47-.68-1.2-1.02-2.2-1.02-.37,0-.74.01-1.09.04-.35.02-.63.07-.84.14v7.49Zm21.77,6.83c0-.75-.22-1.38-.66-1.89-.44-.54-1-1.04-1.68-1.51-.65-.47-1.38-.94-2.17-1.43-.77-.49-1.49-1.06-2.17-1.71-.65-.65-1.2-1.42-1.64-2.31-.44-.89-.67-1.97-.67-3.26,0-1.19.17-2.19.53-3.01.37-.84.88-1.52,1.51-2.03.63-.54,1.38-.92,2.24-1.15.86-.26,1.78-.38,2.77-.38,1.19,0,2.3.12,3.32.35,1.03.23,1.88.55,2.56.94l-1.37,3.89c-.4-.28-.99-.54-1.78-.77-.77-.23-1.61-.35-2.52-.35s-1.61.19-2.1.56c-.49.37-.73.92-.73,1.64,0,.65.22,1.24.66,1.75.44.49.99.97,1.65,1.43.68.47,1.4.96,2.17,1.47.79.49,1.52,1.07,2.17,1.75.68.65,1.24,1.43,1.68,2.35.44.89.67,1.95.67,3.18s-.19,2.31-.56,3.22c-.35.91-.86,1.67-1.54,2.27-.65.58-1.45,1.03-2.38,1.33-.93.3-1.97.45-3.11.45-1.45,0-2.72-.14-3.82-.42-1.07-.28-1.9-.6-2.48-.95l1.43-3.95c.47.28,1.11.56,1.92.84.82.28,1.69.42,2.62.42,2.33,0,3.5-.91,3.5-2.73Zm21.51-14.14h-5.78v20.44h-4.41v-20.44h-5.81v-4.06h16v4.06Zm9.42,14.91h-5.77l-1.43,5.53h-4.38l7.1-24.67h3.47l7.14,24.67h-4.62l-1.51-5.53Zm-4.83-3.64h4.06l-1.4-5.7-.56-3.85h-.14l-.59,3.89-1.36,5.67Zm12.84-15.33h4.41v24.5h-4.41v-24.5Zm7.95,0c.42-.07.89-.12,1.4-.14.54-.05,1.07-.08,1.61-.11.56-.05,1.1-.07,1.61-.07.51-.02.97-.04,1.36-.04,1.94,0,3.55.3,4.83.91,1.31.58,2.35,1.42,3.12,2.52.79,1.07,1.35,2.37,1.68,3.89.33,1.52.49,3.21.49,5.08,0,1.7-.16,3.34-.49,4.9-.3,1.54-.85,2.9-1.65,4.1-.79,1.17-1.87,2.1-3.22,2.8-1.35.7-3.06,1.05-5.11,1.05-.3,0-.71-.01-1.22-.04-.51-.02-1.05-.06-1.61-.11-.56-.02-1.1-.06-1.61-.1-.51-.02-.91-.06-1.19-.11v-24.54Zm6.44,3.71c-.37,0-.76.01-1.15.04-.37,0-.66.02-.88.07v16.87c.07.02.19.05.35.07.19,0,.37.01.56.04.21,0,.4.01.56.04h.39c1.05,0,1.91-.25,2.59-.74.68-.49,1.2-1.14,1.58-1.96.4-.82.66-1.75.8-2.8.16-1.07.24-2.19.24-3.36,0-1.07-.07-2.11-.21-3.11-.12-1-.36-1.88-.73-2.62-.35-.77-.86-1.38-1.54-1.82-.65-.47-1.51-.7-2.56-.7Z"/>
    <path class="cls-7" d="m775.33,451.99h12.88v3.71h-12.88v-3.71Zm0,6.65h12.88v3.71h-12.88v-3.71Zm31.68,4.93h-5.78l-1.43,5.53h-4.38l7.11-24.67h3.46l7.14,24.67h-4.62l-1.51-5.53Zm-4.83-3.64h4.06l-1.4-5.71-.56-3.85h-.14l-.6,3.89-1.36,5.67Zm16.73-1.86l.35,4.41h.14l.39-4.48,3.29-13.4h3.08l3.18,13.48.39,4.41h.14l.39-4.48,2.17-13.4h4.48l-5.49,24.68h-3.11l-3.43-13.51-.46-3.82h-.17l-.42,3.85-3.43,13.48h-3.26l-5.46-24.68h4.86l2.38,13.48Zm28.06,5.49h-5.78l-1.43,5.53h-4.38l7.11-24.67h3.46l7.14,24.67h-4.62l-1.51-5.53Zm-4.83-3.64h4.06l-1.4-5.71-.56-3.85h-.14l-.59,3.89-1.37,5.67Zm12.46-15.09c.96-.21,1.98-.36,3.08-.45,1.1-.09,2.04-.14,2.84-.14,1,0,1.98.11,2.94.32.96.19,1.8.55,2.52,1.09.75.51,1.34,1.22,1.78,2.13.47.89.7,2.02.7,3.4,0,1.98-.37,3.6-1.12,4.86-.72,1.24-1.73,2.09-3.01,2.55l1.4,1.12,4.51,9.38h-5.07l-4.27-9.66-1.89-.45v10.11h-4.41v-24.26Zm4.41,11.13h1.51c1.1,0,1.92-.33,2.48-.98.56-.68.84-1.72.84-3.12,0-1.05-.23-1.9-.7-2.55-.47-.68-1.2-1.01-2.21-1.01-.37,0-.73.01-1.08.03-.35.02-.63.07-.84.14v7.49Zm13.19-11.38h12.25v4.06h-7.84v6.02h7.1v4.06h-7.1v6.3h7.98v4.06h-12.39v-24.5Zm20.43,12.46l-1.61-4.31h-.18l.56,4.24v12.11h-4.17v-24.67h3.4l7.03,12.32,1.51,4.23h.21l-.56-4.17v-12.21h4.16v24.68h-3.4l-6.96-12.21Zm13.51-12.46h12.25v4.06h-7.84v6.02h7.1v4.06h-7.1v6.3h7.98v4.06h-12.39v-24.5Zm23.61,18.2c0-.75-.22-1.38-.66-1.89-.44-.54-1-1.04-1.68-1.51-.65-.47-1.38-.94-2.17-1.43-.77-.49-1.49-1.06-2.17-1.71-.65-.65-1.2-1.42-1.65-2.31-.44-.89-.66-1.97-.66-3.26,0-1.19.17-2.19.52-3.01.37-.84.88-1.52,1.51-2.03.63-.54,1.38-.92,2.24-1.15.86-.26,1.78-.39,2.76-.39,1.19,0,2.3.12,3.33.35,1.03.23,1.88.55,2.55.94l-1.36,3.89c-.4-.28-.99-.54-1.78-.77-.77-.23-1.61-.35-2.52-.35s-1.61.19-2.1.56c-.49.37-.74.92-.74,1.64,0,.65.22,1.24.67,1.75.44.49.99.97,1.64,1.44.68.47,1.4.96,2.17,1.47.79.49,1.52,1.07,2.17,1.75.68.65,1.24,1.44,1.68,2.35.44.89.66,1.95.66,3.19s-.19,2.31-.56,3.22c-.35.91-.86,1.67-1.54,2.28-.65.58-1.45,1.03-2.38,1.33-.93.3-1.97.46-3.11.46-1.45,0-2.72-.14-3.82-.42-1.07-.28-1.9-.6-2.48-.95l1.43-3.95c.47.28,1.11.56,1.92.84.82.28,1.69.42,2.62.42,2.33,0,3.5-.91,3.5-2.73Zm15.38,0c0-.75-.22-1.38-.66-1.89-.44-.54-1-1.04-1.68-1.51-.65-.47-1.38-.94-2.17-1.43-.77-.49-1.49-1.06-2.17-1.71-.65-.65-1.2-1.42-1.64-2.31-.44-.89-.67-1.97-.67-3.26,0-1.19.17-2.19.53-3.01.37-.84.88-1.52,1.51-2.03.63-.54,1.38-.92,2.24-1.15.86-.26,1.78-.39,2.77-.39,1.19,0,2.3.12,3.32.35,1.03.23,1.88.55,2.56.94l-1.37,3.89c-.4-.28-.99-.54-1.78-.77-.77-.23-1.61-.35-2.52-.35s-1.61.19-2.1.56c-.49.37-.73.92-.73,1.64,0,.65.22,1.24.66,1.75.44.49.99.97,1.65,1.44.68.47,1.4.96,2.17,1.47.79.49,1.52,1.07,2.17,1.75.68.65,1.24,1.44,1.68,2.35.44.89.67,1.95.67,3.19s-.19,2.31-.56,3.22c-.35.91-.86,1.67-1.54,2.28-.65.58-1.45,1.03-2.38,1.33-.93.3-1.97.46-3.11.46-1.45,0-2.72-.14-3.82-.42-1.07-.28-1.9-.6-2.48-.95l1.43-3.95c.47.28,1.11.56,1.92.84.82.28,1.69.42,2.62.42,2.33,0,3.5-.91,3.5-2.73Zm21.51-14.14h-5.78v20.44h-4.41v-20.44h-5.81v-4.06h16v4.06Zm1.84-4.06h12.25v4.06h-7.84v6.02h7.1v4.06h-7.1v6.3h7.98v4.06h-12.39v-24.5Zm24.94,18.97h-5.78l-1.43,5.53h-4.38l7.1-24.67h3.47l7.14,24.67h-4.62l-1.51-5.53Zm-4.83-3.64h4.06l-1.4-5.71-.56-3.85h-.14l-.6,3.89-1.36,5.67Zm28.14-3.46l.49-4.69h-.18l-1.29,4.2-3.99,8.61h-1.47l-4.24-8.65-1.29-4.23h-.21l.66,4.73v12.67h-4.16v-24.5h4.23l5.11,10.61.84,3.04h.14l.81-3.11,4.79-10.54h4.17v24.5h-4.41v-12.63Z"/>
    <path class="cls-7" d="m775.33,7.88h12.88v3.71h-12.88v-3.71Zm0,6.65h12.88v3.71h-12.88v-3.71Zm36.97-8.36c0,.61-.07,1.21-.21,1.82-.12.58-.32,1.14-.59,1.68-.28.51-.65.97-1.12,1.36-.44.4-.98.7-1.61.91v.21c.56.14,1.09.35,1.58.63.51.28.96.66,1.33,1.15.37.47.66,1.05.88,1.75.23.68.35,1.48.35,2.41,0,1.26-.22,2.36-.66,3.29-.42.91-1,1.66-1.75,2.24-.72.58-1.58,1.01-2.55,1.3-.98.28-2.02.42-3.11.42h-1.26c-.51,0-1.07-.02-1.68-.07-.58-.02-1.19-.07-1.82-.14s-1.21-.17-1.75-.31V.66c.77-.14,1.71-.26,2.83-.35,1.14-.12,2.28-.18,3.4-.18,1.03,0,2.01.08,2.94.25.96.16,1.78.47,2.48.91.72.44,1.3,1.06,1.72,1.85.42.77.63,1.77.63,3.01Zm-7.39,15.36c.98,0,1.78-.32,2.41-.94.63-.63.95-1.55.95-2.76,0-.77-.1-1.38-.32-1.82-.21-.47-.49-.82-.84-1.05-.35-.26-.76-.42-1.23-.49-.44-.07-.91-.11-1.4-.11h-1.79v6.97c.19.07.5.13.95.17.47.02.89.03,1.26.03Zm-1.19-10.64c.26,0,.55-.01.88-.04.35-.05.63-.09.84-.14.68-.26,1.25-.68,1.72-1.26.49-.58.73-1.34.73-2.27,0-.61-.08-1.12-.24-1.54-.16-.42-.39-.75-.66-.98-.28-.26-.62-.43-1.02-.53-.37-.12-.78-.17-1.22-.17-.96,0-1.63.05-2.03.14v6.79h1.02Zm11.17,1.85c0-4.15.71-7.32,2.14-9.49,1.42-2.17,3.59-3.25,6.51-3.25,1.52,0,2.82.3,3.92.91,1.1.58,1.99,1.44,2.7,2.55.7,1.1,1.21,2.44,1.54,4.03.35,1.56.53,3.31.53,5.25,0,4.15-.74,7.32-2.21,9.49-1.45,2.17-3.6,3.25-6.48,3.25-1.54,0-2.86-.29-3.95-.88-1.07-.61-1.96-1.46-2.66-2.56-.7-1.12-1.21-2.46-1.54-4.02-.33-1.59-.49-3.35-.49-5.28Zm4.62,0c0,1.24.07,2.39.21,3.47.14,1.05.37,1.96.7,2.73.33.77.74,1.38,1.23,1.82.51.44,1.14.67,1.89.67,1.35,0,2.37-.69,3.05-2.07.68-1.38,1.01-3.58,1.01-6.61,0-1.19-.07-2.31-.21-3.36-.14-1.07-.37-1.99-.7-2.77-.3-.79-.71-1.41-1.22-1.86-.51-.47-1.16-.7-1.93-.7-2.68,0-4.02,2.89-4.02,8.68Zm20.67.21l-1.61-4.31h-.17l.56,4.24v12.11h-4.17V.32h3.4l7.03,12.32,1.51,4.23h.21l-.56-4.16V.49h4.16v24.67h-3.39l-6.97-12.21Zm13.51-12.46h12.25v4.06h-7.84v6.37h7.21v4.06h-7.21v10.01h-4.41V.49Zm15.05,0h4.41v24.5h-4.41V.49Zm7.96.25c.96-.21,1.98-.36,3.08-.46,1.1-.09,2.04-.14,2.83-.14,1,0,1.98.11,2.94.32.96.19,1.8.55,2.52,1.08.75.51,1.34,1.23,1.78,2.13.47.89.7,2.02.7,3.39,0,1.98-.37,3.61-1.12,4.86-.72,1.24-1.73,2.09-3.01,2.56l1.4,1.12,4.51,9.38h-5.07l-4.27-9.66-1.89-.45v10.11h-4.41V.74Zm4.41,11.13h1.51c1.1,0,1.92-.33,2.48-.98.56-.68.84-1.72.84-3.12,0-1.05-.23-1.9-.7-2.55-.47-.68-1.2-1.01-2.21-1.01-.37,0-.73.01-1.08.03-.35.02-.63.07-.84.14v7.49Zm13.19-11.38h12.25v4.06h-7.84v6.02h7.11v4.06h-7.11v6.3h7.98v4.06h-12.39V.49Z"/>
    <path class="cls-7" d="m776.33,101.37h12.88v3.71h-12.88v-3.71Zm0,6.65h12.88v3.71h-12.88v-3.71Zm36.61-9.98h-5.78v20.44h-4.41v-20.44h-5.81v-4.06h15.99v4.06Zm12.94,10.08h-6.68v10.36h-4.41v-24.5h4.41v10.08h6.68v-10.08h4.41v24.5h-4.41v-10.36Zm7.57-14.14h12.25v4.06h-7.84v6.02h7.11v4.06h-7.11v6.3h7.98v4.06h-12.39v-24.5Zm27.07,13.48l.35,4.41h.14l.39-4.48,3.29-13.41h3.08l3.18,13.48.39,4.41h.14l.39-4.48,2.17-13.41h4.48l-5.49,24.68h-3.11l-3.43-13.51-.46-3.82h-.17l-.42,3.85-3.43,13.47h-3.26l-5.46-24.68h4.86l2.38,13.48Zm19.87-13.48h4.41v24.5h-4.41v-24.5Zm22.66,4.06h-5.78v20.44h-4.41v-20.44h-5.81v-4.06h16v4.06Zm14.68,19.46c-.61.51-1.42.89-2.45,1.12-1,.23-2.01.35-3.01.35-1.26,0-2.44-.21-3.53-.63-1.07-.44-2.02-1.17-2.84-2.17-.82-1-1.46-2.32-1.92-3.95-.47-1.63-.7-3.64-.7-6.02s.26-4.53.77-6.16c.54-1.63,1.22-2.93,2.07-3.89.86-.98,1.84-1.67,2.94-2.07,1.1-.4,2.2-.6,3.33-.6s2.13.09,2.97.28c.86.19,1.56.4,2.1.63l-.88,3.89c-.44-.23-.97-.41-1.57-.53-.58-.14-1.28-.21-2.1-.21-1.61,0-2.85.7-3.71,2.1-.86,1.4-1.3,3.59-1.3,6.58,0,1.28.09,2.46.28,3.53.21,1.05.52,1.96.95,2.73.44.77.99,1.36,1.64,1.78.68.42,1.48.63,2.42.63.82,0,1.52-.11,2.1-.32.58-.23,1.11-.5,1.58-.81l.88,3.71Zm13.2-9.38h-6.68v10.36h-4.41v-24.5h4.41v10.08h6.68v-10.08h4.41v24.5h-4.41v-10.36Zm7.01-12.18c0-.68.2-1.22.59-1.65.42-.42.93-.63,1.54-.63.75,0,1.33.27,1.75.81.44.51.66,1.24.66,2.17s-.13,1.68-.39,2.31c-.26.63-.57,1.17-.95,1.61-.35.42-.72.76-1.12,1.01-.4.26-.73.44-1.02.56l-1.05-1.75c.4-.19.75-.47,1.05-.84.3-.37.48-.83.53-1.37-.4-.02-.77-.21-1.12-.56-.33-.37-.49-.93-.49-1.68Zm15.73,16.24c0-.75-.22-1.38-.66-1.89-.44-.54-1-1.04-1.68-1.5-.65-.47-1.38-.94-2.17-1.44-.77-.49-1.49-1.06-2.17-1.71-.65-.65-1.2-1.42-1.65-2.31-.44-.89-.66-1.97-.66-3.26,0-1.19.17-2.19.52-3.01.37-.84.88-1.52,1.51-2.03.63-.54,1.38-.92,2.24-1.15.86-.26,1.78-.39,2.76-.39,1.19,0,2.3.12,3.33.35,1.03.23,1.88.55,2.55.94l-1.36,3.88c-.4-.28-.99-.54-1.78-.77-.77-.23-1.61-.35-2.52-.35s-1.61.19-2.1.56c-.49.37-.74.92-.74,1.65,0,.65.22,1.24.67,1.75.44.49.99.97,1.64,1.43.68.47,1.4.96,2.17,1.47.79.49,1.52,1.07,2.17,1.75.68.65,1.24,1.43,1.68,2.35.44.89.66,1.95.66,3.18s-.19,2.31-.56,3.22c-.35.91-.86,1.67-1.54,2.28-.65.58-1.45,1.03-2.38,1.33s-1.97.46-3.11.46c-1.45,0-2.72-.14-3.82-.42-1.07-.28-1.9-.6-2.48-.94l1.43-3.96c.47.28,1.11.56,1.92.84.82.28,1.69.42,2.62.42,2.33,0,3.5-.91,3.5-2.73Zm27.47,5.32c-.61.51-1.42.89-2.45,1.12-1,.23-2.01.35-3.01.35-1.26,0-2.44-.21-3.53-.63-1.07-.44-2.02-1.17-2.84-2.17-.82-1-1.46-2.32-1.92-3.95-.47-1.63-.7-3.64-.7-6.02s.26-4.53.77-6.16c.54-1.63,1.22-2.93,2.07-3.89.86-.98,1.84-1.67,2.94-2.07,1.1-.4,2.21-.6,3.33-.6s2.14.09,2.98.28c.86.19,1.56.4,2.1.63l-.88,3.89c-.44-.23-.97-.41-1.58-.53-.58-.14-1.28-.21-2.1-.21-1.61,0-2.85.7-3.71,2.1-.86,1.4-1.29,3.59-1.29,6.58,0,1.28.09,2.46.28,3.53.21,1.05.53,1.96.95,2.73.44.77.99,1.36,1.65,1.78.68.42,1.48.63,2.41.63.82,0,1.52-.11,2.1-.32.58-.23,1.11-.5,1.58-.81l.88,3.71Zm10.67-4.55h-5.78l-1.43,5.53h-4.38l7.11-24.68h3.46l7.14,24.68h-4.62l-1.51-5.53Zm-4.83-3.64h4.06l-1.4-5.71-.56-3.85h-.14l-.6,3.88-1.36,5.67Zm17.34-.94l.49,4.2h.14l.56-4.24,3.57-14.35h4.65l-7.42,24.68h-3.36l-7.49-24.68h5.22l3.64,14.39Zm10.67-14.39h12.25v4.06h-7.84v6.02h7.1v4.06h-7.1v6.3h7.98v4.06h-12.39v-24.5Z"/>
    <path class="cls-7" d="m85.33,270.07h12.88v3.71h-12.88v-3.71Zm0,6.65h12.88v3.71h-12.88v-3.71Zm36.97-8.36c0,.61-.07,1.21-.21,1.82-.12.58-.32,1.14-.6,1.68-.28.51-.65.97-1.12,1.36-.44.4-.98.7-1.61.91v.21c.56.14,1.08.35,1.58.63.51.28.96.67,1.33,1.15.37.47.66,1.05.88,1.75.23.68.35,1.48.35,2.42,0,1.26-.22,2.36-.67,3.29-.42.91-1,1.66-1.75,2.24-.72.58-1.58,1.01-2.56,1.29-.98.28-2.02.42-3.11.42h-1.26c-.51,0-1.07-.02-1.68-.07-.58-.02-1.19-.07-1.82-.14-.63-.07-1.21-.18-1.75-.32v-24.15c.77-.14,1.71-.26,2.83-.35,1.14-.12,2.28-.18,3.39-.18,1.03,0,2.01.08,2.94.24.96.16,1.79.47,2.49.91.72.44,1.29,1.06,1.72,1.86.42.77.63,1.77.63,3.01Zm-7.39,15.36c.98,0,1.79-.32,2.42-.95s.94-1.55.94-2.76c0-.77-.1-1.38-.32-1.82-.21-.47-.49-.82-.84-1.05-.35-.26-.76-.42-1.22-.49-.44-.07-.91-.1-1.4-.1h-1.79v6.96c.19.07.5.13.94.17.47.02.89.04,1.26.04Zm-1.19-10.64c.26,0,.55-.01.88-.03.35-.05.63-.09.84-.14.68-.26,1.25-.68,1.71-1.26.49-.58.74-1.34.74-2.27,0-.61-.08-1.12-.24-1.54-.16-.42-.39-.75-.67-.98-.28-.26-.62-.43-1.01-.52-.37-.12-.78-.18-1.22-.18-.96,0-1.63.05-2.03.14v6.79h1.01Zm21.64,8.58h-5.77l-1.43,5.53h-4.38l7.11-24.67h3.46l7.14,24.67h-4.62l-1.51-5.53Zm-4.83-3.64h4.06l-1.4-5.71-.56-3.85h-.14l-.6,3.89-1.37,5.67Zm12.46-15.09c.96-.21,1.98-.36,3.08-.45,1.1-.09,2.04-.14,2.84-.14,1,0,1.98.11,2.94.32.96.19,1.8.55,2.52,1.08.75.51,1.34,1.23,1.79,2.14.47.89.7,2.02.7,3.4,0,1.98-.37,3.6-1.12,4.86-.72,1.24-1.73,2.09-3.01,2.55l1.4,1.12,4.51,9.38h-5.07l-4.27-9.66-1.89-.45v10.11h-4.41v-24.26Zm4.41,11.13h1.51c1.1,0,1.93-.33,2.49-.98.56-.68.84-1.71.84-3.11,0-1.05-.23-1.9-.7-2.55-.47-.68-1.2-1.02-2.21-1.02-.37,0-.74.01-1.09.04-.35.02-.63.07-.84.14v7.49Z"/>
    <path class="cls-7" d="m84.33,104.42h12.88v3.71h-12.88v-3.71Zm0,6.65h12.88v3.71h-12.88v-3.71Zm23.36-14.04h4.41v24.5h-4.41v-24.5Zm13.34,12.46l-1.61-4.31h-.18l.56,4.24v12.11h-4.17v-24.68h3.4l7.04,12.32,1.5,4.24h.21l-.56-4.17v-12.22h4.16v24.68h-3.4l-6.96-12.22Zm13.51-12.46h12.25v4.06h-7.84v6.37h7.21v4.06h-7.21v10.01h-4.41v-24.5Zm14.1,12.25c0-4.15.71-7.31,2.13-9.49,1.42-2.17,3.59-3.26,6.51-3.26,1.52,0,2.82.3,3.92.91,1.1.58,1.99,1.44,2.69,2.56.7,1.1,1.21,2.44,1.54,4.02.35,1.56.52,3.31.52,5.25,0,4.15-.74,7.32-2.21,9.49-1.45,2.17-3.6,3.26-6.47,3.26-1.54,0-2.86-.29-3.96-.88-1.07-.61-1.96-1.46-2.66-2.56-.7-1.12-1.21-2.46-1.54-4.03-.33-1.59-.49-3.35-.49-5.29Zm4.62,0c0,1.24.07,2.39.21,3.47.14,1.05.37,1.96.7,2.73.33.77.74,1.38,1.23,1.82.51.44,1.14.67,1.89.67,1.35,0,2.37-.69,3.04-2.06.68-1.38,1.01-3.58,1.01-6.62,0-1.19-.07-2.31-.21-3.36-.14-1.07-.37-1.99-.7-2.76-.3-.79-.71-1.41-1.23-1.85-.51-.47-1.15-.7-1.92-.7-2.68,0-4.03,2.89-4.03,8.68Zm13.98,9.98c0-.79.23-1.41.7-1.86.47-.47,1.05-.7,1.75-.7.89,0,1.56.31,2.03.94.49.63.74,1.5.74,2.62,0,1.03-.15,1.91-.46,2.66-.28.75-.63,1.36-1.05,1.86-.42.51-.88.92-1.36,1.22-.47.3-.88.53-1.23.67l-1.29-1.68c.54-.28,1.01-.74,1.43-1.36.42-.61.65-1.23.7-1.86-.49.02-.94-.16-1.36-.56-.4-.42-.6-1.07-.6-1.96Zm35.21-10.36l.49-4.69h-.18l-1.29,4.2-3.99,8.61h-1.47l-4.24-8.64-1.29-4.24h-.21l.66,4.72v12.67h-4.16v-24.5h4.24l5.11,10.61.84,3.04h.14l.8-3.11,4.8-10.54h4.16v24.5h-4.41v-12.63Zm7.56-11.87h12.25v4.06h-7.84v6.02h7.11v4.06h-7.11v6.3h7.98v4.06h-12.39v-24.5Zm15.04.25c.96-.21,1.98-.36,3.08-.46,1.1-.09,2.04-.14,2.83-.14,1,0,1.98.1,2.94.32.96.19,1.8.55,2.52,1.08.75.51,1.34,1.23,1.79,2.14.47.89.7,2.02.7,3.39,0,1.98-.37,3.61-1.12,4.86-.72,1.24-1.73,2.09-3.01,2.56l1.4,1.12,4.51,9.38h-5.08l-4.27-9.66-1.89-.46v10.11h-4.41v-24.26Zm4.41,11.13h1.5c1.1,0,1.93-.33,2.49-.98.56-.68.84-1.72.84-3.12,0-1.05-.23-1.9-.7-2.55-.47-.68-1.2-1.02-2.2-1.02-.37,0-.74.01-1.09.04-.35.02-.63.07-.84.14v7.49Zm26.16,12.15c-.61.51-1.42.89-2.45,1.12-1,.23-2.01.35-3.01.35-1.26,0-2.44-.21-3.54-.63-1.07-.44-2.02-1.17-2.83-2.17-.82-1-1.46-2.32-1.93-3.96-.47-1.63-.7-3.64-.7-6.02s.26-4.53.77-6.16c.54-1.63,1.23-2.93,2.07-3.88.86-.98,1.84-1.67,2.94-2.07,1.1-.4,2.21-.6,3.32-.6s2.14.09,2.97.28c.86.19,1.56.4,2.1.63l-.88,3.89c-.44-.23-.97-.41-1.57-.53-.58-.14-1.28-.21-2.1-.21-1.61,0-2.85.7-3.71,2.1-.86,1.4-1.29,3.59-1.29,6.58,0,1.28.09,2.46.28,3.54.21,1.05.53,1.96.95,2.73.44.77.99,1.37,1.64,1.79.68.42,1.48.63,2.42.63.82,0,1.52-.1,2.1-.31.58-.23,1.11-.5,1.57-.81l.88,3.71Zm13.2-9.38h-6.68v10.36h-4.41v-24.5h4.41v10.08h6.68v-10.08h4.41v24.5h-4.41v-10.36Zm7.15,8.09c0-.79.23-1.41.7-1.86.47-.47,1.05-.7,1.75-.7.89,0,1.56.31,2.03.94.49.63.74,1.5.74,2.62,0,1.03-.15,1.91-.46,2.66-.28.75-.63,1.36-1.05,1.86-.42.51-.88.92-1.36,1.22-.47.3-.88.53-1.23.67l-1.3-1.68c.54-.28,1.02-.74,1.43-1.36.42-.61.65-1.23.7-1.86-.49.02-.95-.16-1.36-.56-.4-.42-.6-1.07-.6-1.96Zm19.36-10.4h7.56v10.85c-.86.82-1.88,1.41-3.05,1.79-1.14.35-2.29.53-3.43.53-1.38,0-2.62-.25-3.74-.74-1.12-.49-2.08-1.25-2.87-2.28-.77-1.05-1.38-2.37-1.82-3.96-.42-1.61-.63-3.53-.63-5.78s.26-4.31.77-5.92c.51-1.61,1.19-2.92,2.03-3.92.86-1.03,1.86-1.76,2.98-2.21,1.14-.47,2.35-.7,3.61-.7,1.12,0,2.13.1,3.04.31.93.19,1.7.41,2.31.67l-.91,3.82c-.47-.21-1.01-.38-1.64-.53-.61-.14-1.35-.21-2.24-.21-.82,0-1.56.16-2.24.49-.65.33-1.21.84-1.68,1.54-.44.7-.79,1.61-1.05,2.73-.23,1.1-.35,2.42-.35,3.96,0,2.96.44,5.14,1.33,6.54.91,1.4,2.1,2.1,3.57,2.1.47,0,.91-.07,1.33-.21.44-.14.83-.36,1.15-.67v-5l-4.03-.56v-2.66Zm23.17,12.67h-13.02v-24.5h4.41v20.44h8.61v4.06Zm2.2-24.5h4.41v24.5h-4.41v-24.5Zm22.65,4.06h-5.77v20.44h-4.41v-20.44h-5.81v-4.06h15.99v4.06Zm17.23,0h-5.78v20.44h-4.41v-20.44h-5.81v-4.06h15.99v4.06Zm1.84-4.06h12.25v4.06h-7.84v6.02h7.11v4.06h-7.11v6.3h7.98v4.06h-12.39v-24.5Zm15.04.25c.96-.21,1.98-.36,3.08-.46,1.1-.09,2.04-.14,2.84-.14,1,0,1.98.1,2.94.32.96.19,1.8.55,2.52,1.08.75.51,1.34,1.23,1.79,2.14.47.89.7,2.02.7,3.39,0,1.98-.37,3.61-1.12,4.86-.72,1.24-1.73,2.09-3.01,2.56l1.4,1.12,4.51,9.38h-5.07l-4.27-9.66-1.89-.46v10.11h-4.41v-24.26Zm4.41,11.13h1.51c1.1,0,1.92-.33,2.48-.98.56-.68.84-1.72.84-3.12,0-1.05-.23-1.9-.7-2.55-.47-.68-1.2-1.02-2.21-1.02-.37,0-.73.01-1.08.04-.35.02-.63.07-.84.14v7.49Zm21.24,6.33c0-.89.12-1.73.35-2.52.26-.79.61-1.54,1.05-2.24.44-.7.96-1.34,1.54-1.93.61-.61,1.25-1.14,1.92-1.61-.49-.77-.9-1.56-1.22-2.38-.3-.82-.46-1.67-.46-2.56,0-.58.09-1.17.28-1.75.19-.61.49-1.14.91-1.61.42-.49.96-.88,1.61-1.15.68-.3,1.49-.46,2.45-.46s1.69.13,2.35.39c.65.23,1.18.56,1.58.98.42.4.72.86.91,1.4.19.54.28,1.1.28,1.68,0,.98-.29,2-.88,3.04-.58,1.03-1.54,2.03-2.87,3.01.58,1.1,1.2,2.21,1.86,3.32.68,1.1,1.42,2.16,2.24,3.19.44-.58.82-1.27,1.12-2.07.3-.82.58-1.66.84-2.52l3.11,1.43c-.12.42-.28.9-.49,1.43-.21.54-.44,1.07-.7,1.61-.26.51-.51,1.01-.77,1.51-.26.47-.5.86-.74,1.19.58.68,1.12,1.22,1.61,1.65.51.4,1.01.75,1.51,1.05l-2.14,3.19c-.63-.3-1.25-.7-1.86-1.19-.58-.49-1.15-1.06-1.71-1.72-.7.79-1.56,1.48-2.59,2.07-1,.56-2.26.84-3.78.84-1.05,0-2.03-.16-2.94-.49-.89-.3-1.66-.76-2.31-1.36-.65-.63-1.17-1.4-1.54-2.31-.35-.91-.52-1.95-.52-3.12Zm11.27,1.61c-.93-1.24-1.78-2.44-2.55-3.6-.75-1.19-1.39-2.35-1.92-3.47-.82.82-1.46,1.62-1.93,2.42-.47.77-.7,1.68-.7,2.73,0,1.19.33,2.12.98,2.8.68.65,1.55.98,2.62.98.75,0,1.44-.19,2.07-.56.63-.4,1.11-.83,1.43-1.3Zm-3.92-14.63c0,1.03.34,2.08,1.01,3.15.68-.58,1.17-1.13,1.47-1.65.3-.54.46-1.04.46-1.5,0-.54-.13-.97-.39-1.29-.23-.35-.61-.53-1.12-.53-.47,0-.83.18-1.08.53-.23.33-.35.76-.35,1.29Zm22.43-4.69h12.25v4.06h-7.84v6.37h7.21v4.06h-7.21v10.01h-4.41v-24.5Zm24.57,18.97h-5.77l-1.43,5.53h-4.38l7.11-24.68h3.46l7.14,24.68h-4.62l-1.51-5.53Zm-4.83-3.64h4.06l-1.4-5.71-.56-3.85h-.14l-.6,3.89-1.36,5.67Zm25.43,8.19c-.61.51-1.42.89-2.45,1.12-1,.23-2.01.35-3.01.35-1.26,0-2.44-.21-3.53-.63-1.07-.44-2.02-1.17-2.84-2.17-.82-1-1.46-2.32-1.92-3.96-.47-1.63-.7-3.64-.7-6.02s.26-4.53.77-6.16c.54-1.63,1.22-2.93,2.07-3.88.86-.98,1.84-1.67,2.94-2.07,1.1-.4,2.2-.6,3.32-.6s2.14.09,2.98.28c.86.19,1.56.4,2.1.63l-.88,3.89c-.44-.23-.97-.41-1.58-.53-.58-.14-1.28-.21-2.1-.21-1.61,0-2.85.7-3.71,2.1-.86,1.4-1.3,3.59-1.3,6.58,0,1.28.09,2.46.28,3.54.21,1.05.52,1.96.94,2.73.44.77.99,1.37,1.65,1.79.68.42,1.48.63,2.41.63.82,0,1.52-.1,2.1-.31.58-.23,1.11-.5,1.58-.81l.88,3.71Zm2.1-23.52h12.25v4.06h-7.84v6.02h7.11v4.06h-7.11v6.3h7.98v4.06h-12.39v-24.5Zm22.22.25c.84-.19,1.76-.33,2.77-.42,1-.12,2.01-.17,3.01-.17,1.07,0,2.12.1,3.15.32,1.05.19,1.98.57,2.8,1.15.82.58,1.48,1.41,1.99,2.49.51,1.05.77,2.43.77,4.13,0,1.54-.22,2.85-.66,3.92-.42,1.07-.99,1.95-1.72,2.62-.72.68-1.56,1.17-2.52,1.47-.93.3-1.9.46-2.91.46h-1.12c-.23-.02-.47-.05-.7-.07-.21-.02-.36-.05-.45-.07v8.43h-4.41v-24.26Zm4.41,11.87c.14.05.4.09.77.14.4.02.67.04.8.04.51,0,1-.07,1.47-.21.47-.14.88-.37,1.22-.7.37-.35.66-.82.88-1.4.21-.61.32-1.37.32-2.28,0-.77-.1-1.42-.32-1.96-.19-.54-.46-.96-.8-1.26-.33-.33-.71-.56-1.16-.7-.44-.14-.91-.21-1.4-.21-.72,0-1.32.06-1.79.18v8.36Zm19.88,6.86h-5.78l-1.43,5.53h-4.38l7.11-24.68h3.46l7.14,24.68h-4.62l-1.51-5.53Zm-4.83-3.64h4.06l-1.4-5.71-.56-3.85h-.14l-.6,3.89-1.36,5.67Zm12.84-15.33h4.41v24.5h-4.41v-24.5Zm13.35,12.46l-1.61-4.31h-.18l.56,4.24v12.11h-4.16v-24.68h3.4l7.03,12.32,1.51,4.24h.21l-.56-4.17v-12.22h4.16v24.68h-3.4l-6.96-12.22Zm28.21-8.4h-5.77v20.44h-4.41v-20.44h-5.81v-4.06h15.99v4.06Z"/>
    <path class="cls-7" d="m84.33,451.99h12.88v3.71h-12.88v-3.71Zm0,6.65h12.88v3.71h-12.88v-3.71Zm35.99,10.46h-13.02v-24.5h4.41v20.44h8.61v4.06Zm-1.55-12.25c0-4.15.71-7.32,2.14-9.48,1.42-2.17,3.59-3.26,6.51-3.26,1.52,0,2.82.3,3.92.91,1.1.58,1.99,1.43,2.69,2.55.7,1.1,1.21,2.44,1.54,4.02.35,1.56.52,3.31.52,5.25,0,4.15-.74,7.32-2.21,9.49-1.45,2.17-3.6,3.26-6.47,3.26-1.54,0-2.86-.29-3.96-.88-1.07-.61-1.96-1.46-2.66-2.56-.7-1.12-1.21-2.46-1.54-4.02-.33-1.59-.49-3.35-.49-5.29Zm4.62,0c0,1.24.07,2.39.21,3.46.14,1.05.37,1.96.7,2.73.33.77.74,1.38,1.23,1.82.51.44,1.14.66,1.89.66,1.35,0,2.37-.69,3.04-2.06.68-1.38,1.01-3.58,1.01-6.62,0-1.19-.07-2.31-.21-3.36-.14-1.07-.37-1.99-.7-2.77-.3-.79-.71-1.41-1.23-1.85-.51-.47-1.15-.7-1.92-.7-2.68,0-4.03,2.89-4.03,8.68Zm29.18,11.27c-.61.51-1.42.89-2.45,1.12-1,.23-2.01.35-3.01.35-1.26,0-2.44-.21-3.54-.63-1.07-.44-2.02-1.17-2.83-2.17-.82-1-1.46-2.32-1.93-3.95-.47-1.63-.7-3.64-.7-6.02s.26-4.53.77-6.16c.54-1.63,1.22-2.93,2.06-3.88.86-.98,1.84-1.67,2.94-2.07,1.1-.4,2.21-.6,3.32-.6s2.14.09,2.98.28c.86.19,1.56.4,2.1.63l-.88,3.88c-.44-.23-.97-.41-1.58-.52-.58-.14-1.28-.21-2.1-.21-1.61,0-2.85.7-3.71,2.1-.86,1.4-1.29,3.59-1.29,6.58,0,1.28.09,2.46.28,3.54.21,1.05.53,1.96.95,2.73.44.77.99,1.36,1.64,1.79.68.42,1.48.63,2.42.63.82,0,1.52-.1,2.1-.31.58-.23,1.11-.5,1.57-.81l.88,3.71Zm7.46-9.52h-.95v10.5h-4.41v-24.5h4.41v10.89l.88-.42,5.15-10.46h4.97l-5.6,10.33-1.65,1.29,1.68,1.33,6.48,11.55h-5.39l-5.57-10.5Zm12.79-14h12.25v4.06h-7.84v6.02h7.1v4.06h-7.1v6.3h7.98v4.06h-12.39v-24.5Zm15.04.24c.96-.21,1.98-.36,3.08-.45s2.04-.14,2.84-.14c1,0,1.98.11,2.94.32.96.19,1.8.55,2.52,1.09.75.51,1.34,1.22,1.79,2.13.47.89.7,2.02.7,3.4,0,1.98-.37,3.6-1.12,4.86-.72,1.24-1.73,2.09-3.01,2.55l1.4,1.12,4.51,9.38h-5.07l-4.27-9.66-1.89-.45v10.11h-4.41v-24.26Zm4.41,11.13h1.51c1.1,0,1.92-.33,2.49-.98.56-.68.84-1.72.84-3.12,0-1.05-.23-1.9-.7-2.55-.47-.68-1.2-1.01-2.21-1.01-.37,0-.74.01-1.09.03-.35.02-.63.07-.84.14v7.49Zm21.77,6.83c0-.75-.22-1.38-.67-1.89-.44-.54-1-1.04-1.68-1.51-.65-.47-1.38-.94-2.17-1.43-.77-.49-1.49-1.06-2.17-1.71-.65-.65-1.2-1.42-1.64-2.31-.44-.89-.67-1.97-.67-3.26,0-1.19.18-2.19.53-3.01.37-.84.88-1.52,1.5-2.03.63-.54,1.38-.92,2.24-1.15.86-.26,1.79-.39,2.76-.39,1.19,0,2.3.12,3.32.35,1.03.23,1.88.55,2.56.94l-1.37,3.89c-.4-.28-.99-.54-1.79-.77-.77-.23-1.61-.35-2.52-.35s-1.61.19-2.1.56c-.49.37-.74.92-.74,1.64,0,.65.22,1.24.66,1.75.44.49.99.97,1.65,1.44.68.47,1.4.96,2.17,1.47.79.49,1.52,1.07,2.17,1.75.68.65,1.24,1.44,1.68,2.35.44.89.66,1.95.66,3.19s-.19,2.31-.56,3.22c-.35.91-.86,1.67-1.54,2.28-.65.58-1.45,1.03-2.38,1.33-.93.3-1.97.46-3.12.46-1.45,0-2.72-.14-3.81-.42-1.07-.28-1.9-.6-2.49-.95l1.43-3.95c.47.28,1.11.56,1.93.84.82.28,1.69.42,2.62.42,2.33,0,3.5-.91,3.5-2.73Z"/>
    <path class="cls-7" d="m85.33,180.64h12.88v3.71h-12.88v-3.71Zm0,6.65h12.88v3.71h-12.88v-3.71Zm22.97-13.79c.84-.19,1.76-.33,2.76-.42,1-.12,2.01-.18,3.01-.18,1.07,0,2.12.1,3.15.32,1.05.19,1.98.57,2.8,1.15.82.58,1.48,1.41,2,2.49.51,1.05.77,2.43.77,4.13,0,1.54-.22,2.85-.67,3.92-.42,1.07-.99,1.95-1.71,2.62-.72.68-1.56,1.17-2.52,1.47-.93.3-1.9.45-2.9.45h-1.12c-.23-.02-.47-.05-.7-.07-.21-.02-.36-.05-.46-.07v8.44h-4.41v-24.26Zm4.41,11.87c.14.05.4.09.77.14.4.02.67.03.81.03.51,0,1-.07,1.47-.21.47-.14.88-.37,1.22-.7.37-.35.67-.82.88-1.4.21-.61.32-1.36.32-2.27,0-.77-.11-1.42-.32-1.96-.19-.54-.46-.96-.81-1.26-.33-.33-.71-.56-1.15-.7-.44-.14-.91-.21-1.4-.21-.72,0-1.32.06-1.79.18v8.37Zm11.44.14c0-4.15.71-7.32,2.13-9.49,1.42-2.17,3.59-3.26,6.51-3.26,1.52,0,2.82.3,3.92.91,1.1.58,1.99,1.43,2.69,2.55.7,1.1,1.21,2.44,1.54,4.03.35,1.56.52,3.31.52,5.25,0,4.15-.74,7.31-2.21,9.49-1.45,2.17-3.6,3.25-6.47,3.25-1.54,0-2.86-.29-3.96-.88-1.07-.61-1.96-1.46-2.66-2.55-.7-1.12-1.21-2.46-1.54-4.03-.33-1.59-.49-3.35-.49-5.28Zm4.62,0c0,1.24.07,2.39.21,3.46.14,1.05.37,1.96.7,2.73.33.77.74,1.38,1.23,1.82.51.44,1.14.66,1.89.66,1.35,0,2.37-.69,3.04-2.07.68-1.38,1.01-3.58,1.01-6.61,0-1.19-.07-2.31-.21-3.36-.14-1.07-.37-2-.7-2.76-.3-.79-.71-1.41-1.23-1.86-.51-.47-1.15-.7-1.92-.7-2.68,0-4.03,2.89-4.03,8.68Zm20.03,1.22l.35,4.41h.14l.38-4.48,3.29-13.4h3.08l3.18,13.47.39,4.41h.14l.38-4.48,2.17-13.4h4.48l-5.5,24.67h-3.11l-3.43-13.51-.46-3.82h-.18l-.42,3.85-3.43,13.47h-3.26l-5.46-24.67h4.86l2.38,13.47Zm19.49-13.47h12.25v4.06h-7.84v6.02h7.1v4.06h-7.1v6.3h7.98v4.06h-12.39v-24.5Zm15.04.24c.96-.21,1.98-.36,3.08-.46,1.1-.09,2.04-.14,2.84-.14,1,0,1.98.1,2.94.32.96.19,1.8.55,2.52,1.08.75.51,1.34,1.23,1.79,2.14.47.89.7,2.02.7,3.39,0,1.98-.37,3.61-1.12,4.87-.72,1.24-1.73,2.09-3.01,2.56l1.4,1.12,4.51,9.38h-5.07l-4.27-9.66-1.89-.46v10.12h-4.41v-24.26Zm4.41,11.13h1.51c1.1,0,1.93-.33,2.49-.98.56-.68.84-1.71.84-3.11,0-1.05-.23-1.9-.7-2.56-.47-.68-1.2-1.01-2.21-1.01-.37,0-.74.01-1.09.04-.35.02-.63.07-.84.14v7.49Zm34.37-5.71c0,.61-.07,1.21-.21,1.82-.12.58-.32,1.14-.6,1.68-.28.51-.65.97-1.12,1.36-.44.4-.98.7-1.61.91v.21c.56.14,1.08.35,1.57.63.51.28.96.67,1.33,1.15.37.47.66,1.05.88,1.75.23.68.35,1.48.35,2.42,0,1.26-.22,2.36-.66,3.29-.42.91-1,1.66-1.75,2.24-.72.58-1.57,1.01-2.56,1.29-.98.28-2.02.42-3.11.42h-1.26c-.51,0-1.07-.02-1.68-.07-.58-.02-1.19-.07-1.82-.14-.63-.07-1.21-.18-1.75-.32v-24.15c.77-.14,1.72-.26,2.84-.35,1.14-.12,2.27-.18,3.4-.18,1.03,0,2.01.08,2.94.24.96.16,1.78.47,2.49.91.72.44,1.29,1.06,1.71,1.85.42.77.63,1.77.63,3.01Zm-7.38,15.36c.98,0,1.79-.32,2.42-.94.63-.63.94-1.55.94-2.76,0-.77-.1-1.38-.32-1.82-.21-.47-.49-.82-.84-1.05-.35-.26-.76-.42-1.23-.49-.44-.07-.91-.1-1.4-.1h-1.79v6.96c.19.07.5.13.95.18.47.02.89.03,1.26.03Zm-1.19-10.64c.26,0,.55-.01.88-.03.35-.05.63-.09.84-.14.68-.26,1.25-.68,1.72-1.26.49-.58.74-1.34.74-2.27,0-.61-.08-1.12-.25-1.54-.16-.42-.38-.75-.66-.98-.28-.26-.62-.43-1.01-.52-.37-.12-.78-.18-1.23-.18-.96,0-1.63.05-2.03.14v6.79h1.01Zm21.64,8.57h-5.77l-1.43,5.53h-4.38l7.1-24.68h3.46l7.14,24.68h-4.62l-1.51-5.53Zm-4.83-3.64h4.06l-1.4-5.7-.56-3.85h-.14l-.6,3.88-1.37,5.67Zm17.85-2.87l-1.61-4.3h-.18l.56,4.24v12.11h-4.16v-24.68h3.4l7.03,12.32,1.51,4.24h.21l-.56-4.16v-12.21h4.17v24.67h-3.39l-6.97-12.21Zm18.87,1.54h-.95v10.5h-4.41v-24.5h4.41v10.88l.88-.42,5.14-10.46h4.97l-5.6,10.32-1.64,1.29,1.68,1.33,6.48,11.55h-5.39l-5.56-10.5Zm21.37,4.2c0-.75-.22-1.38-.67-1.89-.44-.54-1-1.04-1.68-1.51-.65-.47-1.38-.94-2.17-1.43-.77-.49-1.49-1.06-2.17-1.71-.65-.65-1.2-1.42-1.65-2.31-.44-.89-.66-1.97-.66-3.25,0-1.19.17-2.19.52-3.01.37-.84.88-1.52,1.51-2.03.63-.54,1.38-.92,2.24-1.15.86-.26,1.79-.38,2.77-.38,1.19,0,2.3.12,3.32.35,1.03.23,1.88.55,2.55.94l-1.36,3.88c-.4-.28-.99-.54-1.79-.77-.77-.23-1.61-.35-2.52-.35s-1.61.19-2.1.56c-.49.37-.73.92-.73,1.65,0,.65.22,1.24.66,1.75.44.49.99.97,1.65,1.43.68.47,1.4.96,2.17,1.47.79.49,1.52,1.07,2.17,1.75.68.65,1.24,1.43,1.68,2.35.44.89.67,1.95.67,3.18s-.19,2.31-.56,3.22c-.35.91-.86,1.67-1.54,2.27-.65.58-1.45,1.03-2.38,1.33-.93.3-1.97.46-3.11.46-1.45,0-2.72-.14-3.82-.42-1.07-.28-1.9-.6-2.49-.94l1.44-3.96c.47.28,1.11.56,1.92.84.82.28,1.69.42,2.62.42,2.33,0,3.5-.91,3.5-2.73Z"/>
    <path class="cls-7" d="m84.33,360.52h12.88v3.71h-12.88v-3.71Zm0,6.65h12.88v3.71h-12.88v-3.71Zm27.82-.56l.35,4.41h.14l.39-4.48,3.29-13.4h3.08l3.18,13.48.39,4.41h.14l.38-4.48,2.17-13.4h4.48l-5.5,24.68h-3.12l-3.43-13.51-.45-3.82h-.18l-.42,3.85-3.43,13.48h-3.26l-5.46-24.68h4.87l2.38,13.48Zm28.06,5.49h-5.78l-1.43,5.53h-4.38l7.1-24.67h3.47l7.14,24.67h-4.62l-1.5-5.53Zm-4.83-3.64h4.06l-1.4-5.71-.56-3.85h-.14l-.6,3.89-1.36,5.67Zm24.83-11.27h-5.77v20.44h-4.41v-20.44h-5.81v-4.06h15.99v4.06Zm1.84-4.06h12.25v4.06h-7.84v6.02h7.1v4.06h-7.1v6.3h7.98v4.06h-12.39v-24.5Zm15.04.24c.96-.21,1.98-.36,3.08-.45,1.1-.09,2.04-.14,2.84-.14,1,0,1.98.11,2.94.32.96.19,1.8.55,2.52,1.09.75.51,1.34,1.22,1.79,2.13.47.89.7,2.02.7,3.4,0,1.98-.37,3.6-1.12,4.86-.72,1.24-1.73,2.09-3.01,2.55l1.4,1.12,4.51,9.38h-5.07l-4.27-9.66-1.89-.45v10.11h-4.41v-24.26Zm4.41,11.13h1.51c1.1,0,1.92-.33,2.48-.98.56-.68.84-1.71.84-3.11,0-1.05-.23-1.9-.7-2.55-.47-.68-1.2-1.02-2.21-1.02-.37,0-.74.01-1.09.04-.35.02-.63.07-.84.14v7.49Zm20.37-11.13c.84-.19,1.76-.33,2.76-.42,1-.12,2.01-.18,3.01-.18,1.07,0,2.12.11,3.15.32,1.05.19,1.98.57,2.8,1.15.82.58,1.48,1.41,2,2.49.51,1.05.77,2.43.77,4.13,0,1.54-.22,2.85-.66,3.92-.42,1.07-.99,1.95-1.71,2.62-.72.68-1.56,1.17-2.52,1.47-.93.3-1.9.46-2.9.46h-1.12c-.23-.02-.47-.05-.7-.07-.21-.02-.36-.05-.46-.07v8.43h-4.41v-24.26Zm4.41,11.87c.14.05.4.09.77.14.4.02.67.04.81.04.51,0,1-.07,1.47-.21.47-.14.88-.37,1.22-.7.37-.35.67-.82.88-1.4.21-.61.32-1.36.32-2.27,0-.77-.1-1.42-.32-1.96-.19-.54-.46-.96-.8-1.26-.33-.33-.71-.56-1.15-.7-.44-.14-.91-.21-1.4-.21-.72,0-1.32.06-1.79.17v8.37Zm11.44.14c0-4.15.71-7.32,2.13-9.48,1.42-2.17,3.59-3.26,6.51-3.26,1.52,0,2.82.3,3.92.91,1.1.58,1.99,1.43,2.69,2.55.7,1.1,1.21,2.44,1.54,4.02.35,1.56.52,3.31.52,5.25,0,4.15-.74,7.32-2.21,9.49-1.45,2.17-3.6,3.25-6.47,3.25-1.54,0-2.86-.29-3.96-.88-1.07-.61-1.96-1.46-2.66-2.55-.7-1.12-1.21-2.46-1.54-4.02-.33-1.59-.49-3.35-.49-5.29Zm4.62,0c0,1.24.07,2.39.21,3.46.14,1.05.37,1.96.7,2.73s.74,1.38,1.23,1.82c.51.44,1.14.66,1.89.66,1.35,0,2.37-.69,3.04-2.07.68-1.38,1.01-3.58,1.01-6.61,0-1.19-.07-2.31-.21-3.36-.14-1.07-.37-2-.7-2.77-.3-.79-.71-1.41-1.22-1.86-.51-.47-1.15-.7-1.93-.7-2.68,0-4.03,2.89-4.03,8.68Zm15.67-12.25h4.41v24.5h-4.41v-24.5Zm13.34,12.46l-1.61-4.3h-.18l.56,4.24v12.11h-4.17v-24.67h3.4l7.04,12.32,1.51,4.24h.21l-.56-4.17v-12.21h4.17v24.68h-3.4l-6.96-12.22Zm28.21-8.4h-5.77v20.44h-4.41v-20.44h-5.81v-4.06h15.99v4.06Z"/>
    <path class="cls-7" d="m84.33,20.07h12.88v3.71h-12.88v-3.71Zm0,6.65h12.88v3.71h-12.88v-3.71Zm36.61-9.98h-5.78v20.44h-4.41v-20.44h-5.81v-4.06h16v4.06Zm2.23-4.06h4.41v24.5h-4.41V12.69Zm21.85,23.52c-.61.51-1.42.89-2.45,1.12-1,.23-2.01.35-3.01.35-1.26,0-2.44-.21-3.54-.63-1.07-.44-2.02-1.17-2.84-2.17-.82-1-1.46-2.32-1.92-3.95-.47-1.63-.7-3.64-.7-6.02s.26-4.53.77-6.16c.54-1.63,1.23-2.93,2.07-3.89.86-.98,1.84-1.67,2.94-2.06,1.1-.4,2.21-.6,3.32-.6s2.13.09,2.98.28c.86.19,1.56.4,2.1.63l-.88,3.89c-.44-.23-.97-.41-1.57-.52-.58-.14-1.28-.21-2.1-.21-1.61,0-2.85.7-3.71,2.1-.86,1.4-1.29,3.59-1.29,6.58,0,1.28.09,2.46.28,3.53.21,1.05.52,1.96.94,2.73.44.77.99,1.36,1.65,1.78.68.42,1.48.63,2.42.63.82,0,1.52-.1,2.1-.31.58-.23,1.11-.5,1.57-.81l.88,3.71Zm7.46-9.52h-.95v10.5h-4.41V12.69h4.41v10.89l.88-.42,5.15-10.47h4.97l-5.6,10.33-1.64,1.3,1.68,1.33,6.48,11.55h-5.39l-5.57-10.5Zm12.79-14h12.25v4.06h-7.84v6.02h7.1v4.06h-7.1v6.3h7.98v4.06h-12.39V12.69Zm29.74,4.06h-5.77v20.44h-4.41v-20.44h-5.81v-4.06h15.99v4.06Zm10.42,14.14c0-.75-.22-1.38-.66-1.89-.44-.54-1-1.04-1.68-1.5-.65-.47-1.38-.94-2.17-1.43-.77-.49-1.49-1.06-2.17-1.72-.65-.65-1.2-1.42-1.64-2.31-.44-.89-.67-1.97-.67-3.25,0-1.19.18-2.19.53-3.01.37-.84.88-1.52,1.5-2.03.63-.54,1.38-.92,2.24-1.15.86-.26,1.79-.39,2.76-.39,1.19,0,2.3.12,3.32.35,1.03.23,1.88.55,2.56.95l-1.37,3.89c-.4-.28-.99-.54-1.79-.77-.77-.23-1.61-.35-2.52-.35s-1.61.19-2.1.56c-.49.37-.74.92-.74,1.65,0,.65.22,1.24.66,1.75.44.49.99.97,1.65,1.43.68.47,1.4.96,2.17,1.47.79.49,1.52,1.07,2.17,1.75.68.65,1.24,1.43,1.68,2.34.44.89.66,1.95.66,3.18s-.19,2.31-.56,3.22c-.35.91-.86,1.67-1.54,2.28-.65.58-1.45,1.03-2.38,1.33-.93.3-1.97.45-3.12.45-1.45,0-2.72-.14-3.82-.42-1.07-.28-1.9-.6-2.48-.94l1.43-3.96c.47.28,1.11.56,1.92.84.82.28,1.69.42,2.62.42,2.33,0,3.5-.91,3.5-2.73Zm14.86-.49c0-.89.12-1.73.35-2.52.26-.79.61-1.54,1.05-2.24.44-.7.96-1.34,1.54-1.93.61-.61,1.25-1.14,1.93-1.61-.49-.77-.9-1.56-1.23-2.38-.3-.82-.46-1.67-.46-2.56,0-.58.09-1.17.28-1.75.19-.61.49-1.14.91-1.61.42-.49.96-.88,1.61-1.15.68-.3,1.49-.45,2.45-.45s1.69.13,2.35.39c.65.23,1.18.56,1.57.98.42.4.72.86.91,1.4.19.54.28,1.1.28,1.68,0,.98-.29,2-.88,3.05-.58,1.03-1.54,2.03-2.87,3.01.58,1.1,1.2,2.2,1.85,3.32.68,1.1,1.42,2.16,2.24,3.19.44-.58.82-1.27,1.12-2.07.3-.82.58-1.66.84-2.52l3.12,1.44c-.12.42-.28.9-.49,1.43-.21.54-.44,1.07-.7,1.61-.26.51-.51,1.01-.77,1.5-.26.47-.5.86-.74,1.19.58.68,1.12,1.23,1.61,1.65.51.4,1.01.75,1.51,1.05l-2.13,3.19c-.63-.3-1.25-.7-1.86-1.19-.58-.49-1.15-1.06-1.71-1.72-.7.79-1.56,1.48-2.59,2.06-1,.56-2.26.84-3.78.84-1.05,0-2.03-.16-2.94-.49-.89-.3-1.66-.76-2.31-1.37-.65-.63-1.17-1.4-1.54-2.31-.35-.91-.52-1.95-.52-3.11Zm11.27,1.61c-.93-1.24-1.79-2.44-2.56-3.61-.75-1.19-1.39-2.34-1.93-3.47-.82.82-1.46,1.62-1.92,2.42-.47.77-.7,1.68-.7,2.73,0,1.19.33,2.12.98,2.8.68.65,1.55.98,2.62.98.75,0,1.43-.19,2.06-.56.63-.4,1.11-.83,1.44-1.29Zm-3.92-14.63c0,1.03.34,2.08,1.01,3.15.68-.58,1.17-1.13,1.47-1.65.3-.54.46-1.04.46-1.5,0-.54-.13-.97-.38-1.3-.23-.35-.61-.52-1.12-.52-.47,0-.83.17-1.09.52-.23.33-.35.76-.35,1.3Zm28.48,9.69l.49,4.2h.14l.56-4.24,3.57-14.35h4.65l-7.42,24.68h-3.36l-7.49-24.68h5.21l3.64,14.39Zm8.98-2.14c0-4.15.71-7.32,2.14-9.49,1.42-2.17,3.59-3.25,6.51-3.25,1.52,0,2.82.3,3.92.91,1.1.58,1.99,1.44,2.7,2.56.7,1.1,1.21,2.44,1.54,4.02.35,1.56.53,3.31.53,5.25,0,4.15-.74,7.32-2.21,9.48-1.45,2.17-3.6,3.26-6.48,3.26-1.54,0-2.86-.29-3.95-.88-1.07-.61-1.96-1.46-2.66-2.56-.7-1.12-1.21-2.46-1.54-4.02-.33-1.59-.49-3.35-.49-5.28Zm4.62,0c0,1.24.07,2.39.21,3.47.14,1.05.37,1.96.7,2.73.33.77.74,1.38,1.23,1.82.51.44,1.14.66,1.89.66,1.35,0,2.37-.69,3.05-2.06.68-1.38,1.01-3.58,1.01-6.61,0-1.19-.07-2.31-.21-3.36-.14-1.07-.37-1.99-.7-2.76-.3-.79-.71-1.41-1.23-1.85-.51-.47-1.15-.7-1.93-.7-2.68,0-4.02,2.89-4.02,8.68Zm28.31,12.25h-13.02V12.69h4.41v20.44h8.61v4.06Zm1.81-24.5h12.25v4.06h-7.84v6.02h7.11v4.06h-7.11v6.3h7.98v4.06h-12.39V12.69Zm20.43,12.46l-1.61-4.3h-.17l.56,4.23v12.11h-4.17V12.51h3.4l7.04,12.32,1.5,4.23h.21l-.56-4.16v-12.22h4.16v24.68h-3.39l-6.96-12.22Zm28.21-8.4h-5.77v20.44h-4.41v-20.44h-5.81v-4.06h15.99v4.06Zm1.84-4.06h12.25v4.06h-7.84v6.02h7.11v4.06h-7.11v6.3h7.98v4.06h-12.39V12.69Zm15.04,0h12.25v4.06h-7.84v6.02h7.11v4.06h-7.11v6.3h7.98v4.06h-12.39V12.69Zm15.04.24c.96-.21,1.98-.36,3.08-.45,1.1-.09,2.04-.14,2.83-.14,1,0,1.98.11,2.94.32.96.19,1.8.55,2.52,1.09.75.51,1.34,1.22,1.79,2.13.47.89.7,2.02.7,3.4,0,1.98-.37,3.6-1.12,4.86-.72,1.24-1.73,2.09-3.01,2.56l1.4,1.12,4.52,9.38h-5.08l-4.27-9.66-1.89-.45v10.12h-4.41V12.93Zm4.41,11.13h1.51c1.1,0,1.92-.33,2.48-.98.56-.68.84-1.72.84-3.11,0-1.05-.23-1.9-.7-2.56-.47-.68-1.2-1.02-2.21-1.02-.37,0-.73.01-1.08.04-.35.02-.63.07-.84.14v7.49Zm33.86,12.14c-.61.51-1.42.89-2.45,1.12-1,.23-2.01.35-3.01.35-1.26,0-2.44-.21-3.53-.63-1.07-.44-2.02-1.17-2.84-2.17-.82-1-1.46-2.32-1.92-3.95-.47-1.63-.7-3.64-.7-6.02s.26-4.53.77-6.16c.54-1.63,1.22-2.93,2.07-3.89.86-.98,1.84-1.67,2.94-2.06,1.1-.4,2.21-.6,3.33-.6s2.14.09,2.98.28c.86.19,1.56.4,2.1.63l-.88,3.89c-.44-.23-.97-.41-1.58-.52-.58-.14-1.28-.21-2.1-.21-1.61,0-2.85.7-3.71,2.1-.86,1.4-1.3,3.59-1.3,6.58,0,1.28.09,2.46.28,3.53.21,1.05.53,1.96.95,2.73.44.77.99,1.36,1.65,1.78.68.42,1.48.63,2.41.63.82,0,1.52-.1,2.1-.31.58-.23,1.11-.5,1.58-.81l.88,3.71Zm13.2-9.38h-6.68v10.36h-4.41V12.69h4.41v10.08h6.68v-10.08h4.41v24.5h-4.41v-10.36Zm7.57-14.14h12.25v4.06h-7.84v6.02h7.11v4.06h-7.11v6.3h7.98v4.06h-12.39V12.69Zm28.93,23.52c-.61.51-1.42.89-2.45,1.12-1,.23-2.01.35-3.01.35-1.26,0-2.44-.21-3.54-.63-1.07-.44-2.02-1.17-2.84-2.17-.82-1-1.46-2.32-1.92-3.95-.47-1.63-.7-3.64-.7-6.02s.26-4.53.77-6.16c.54-1.63,1.23-2.93,2.07-3.89.86-.98,1.84-1.67,2.94-2.06,1.1-.4,2.2-.6,3.32-.6s2.14.09,2.98.28c.86.19,1.56.4,2.1.63l-.88,3.89c-.44-.23-.97-.41-1.58-.52-.58-.14-1.28-.21-2.1-.21-1.61,0-2.85.7-3.71,2.1-.86,1.4-1.29,3.59-1.29,6.58,0,1.28.09,2.46.28,3.53.21,1.05.52,1.96.94,2.73.44.77.99,1.36,1.65,1.78.68.42,1.48.63,2.41.63.82,0,1.52-.1,2.1-.31.58-.23,1.11-.5,1.58-.81l.88,3.71Zm7.46-9.52h-.95v10.5h-4.41V12.69h4.41v10.89l.88-.42,5.15-10.47h4.97l-5.6,10.33-1.65,1.3,1.68,1.33,6.47,11.55h-5.39l-5.57-10.5Zm10.47-1.54h7.28v3.99h-7.28v-3.99Zm10.81-12.46h4.41v24.5h-4.41V12.69Zm13.34,12.46l-1.61-4.3h-.18l.56,4.23v12.11h-4.17V12.51h3.4l7.04,12.32,1.51,4.23h.21l-.56-4.16v-12.22h4.17v24.68h-3.4l-6.97-12.22Z"/>
    <g>
      <path class="cls-8" d="m724.35,169.79h-26.98v15.7h26.98v-15.7Z"/>
      <path class="cls-7" d="m731.04,185.49h-41.11v15.82h41.11v-15.82Z"/>
      <path class="cls-8" d="m738.3,201.31h-54.89v16.27h54.89v-16.27Z"/>
    </g>
    <path class="cls-12" d="m713.6,470.65c12.45,0,22.55-11.58,22.55-25.86s-10.1-25.86-22.55-25.86-22.55,11.58-22.55,25.86,10.1,25.86,22.55,25.86Z"/>
    <path class="cls-13" d="m702.51,444.52c.4-.61,4.04-5.93,10.63-6.24,4.91-.23,9.6,2.42,12.24,6.86-.63.94-3.55,5.09-8.82,6.03-5.26.94-10.77-1.68-14.03-6.65h-.01Z"/>
    <rect class="cls-1" x="690.53" y="338.29" width="44" height="53.73"/>
    <path class="cls-14" d="m687.09,136.21c-.23-4.19-.38-14.62,4.16-24.61,6.42-14.12,19.35-21,30.81-16.73,1.86.69,12.7,4.96,17.65,20.17,2.85,8.74,2.39,16.91,2.01,20.64-4.37-.07-8.74-.14-13.11-.22.31-1.39,1.86-8.86-1.04-16.3-2.42-6.2-7.34-10.84-12.96-10.38-6.06.51-10.72,6.73-12.36,13.76-1.48,6.33-.2,11.89.3,13.76-5.15-.04-10.3-.07-15.45-.12v.03Z"/>
    <path class="cls-10" d="m711.14,275.13v39.1l17.4-10.05,6.02-38.45-23.42,9.4Z"/>
    <path class="cls-10" d="m689.84,264.37l21.3,10.76v39.1l-16.74-11.2-4.56-38.66Z"/>
    <path class="cls-4" d="m704.13,271.09l.64,38.89"/>
    <path class="cls-4" d="m696.86,267.91l2.02,38.83"/>
    <path class="cls-4" d="m718.6,272.15c-.22,12.74-.43,25.46-.65,38.2"/>
    <path class="cls-7" d="m726.16,268.7c-.69,12.81-1.39,25.6-2.08,38.41l2.08-38.41Z"/>
    <path class="cls-4" d="m726.16,268.7c-.69,12.81-1.39,25.6-2.08,38.41"/>
    <path class="cls-9" d="m689.59,263.07s-.35-1.11.27-2c.53-.73,1.29-.77,1.41-.77-.19-.35-.46-.97-.51-1.78-.11-1.35.37-2.66,1.06-3.35,1.39-1.39,4.04-1.31,6.08.66-.02-.3-.12-1.69.79-2.92.8-1.08,1.88-1.32,2.18-1.38,2.19-.45,3.84,1.54,3.97,1.68-.02-.39-.12-2.38,1.19-4,1.75-2.17,4.36-1.72,4.56-1.68,1.94.38,3.53,2.03,4.09,4.23.08-.44.62-2.96,2.84-4.44,1.97-1.31,3.93-.92,4.49-.8.71.16,3.3.72,4.29,3.28.76,1.96.3,4.35-1.12,6.12,1.22-1.45,3.09-1.94,4.69-1.24,1.39.61,2.29,2.51,2.58,3.86.15.69.16,1.28.14,1.72,1.12-.28,2.23.31,2.62,1.31.47,1.15-.21,2.28-.26,2.35-7.97,3.38-15.93,6.78-23.9,10.16-7.15-3.66-14.3-7.33-21.44-10.99h-.02Z"/>
    <path class="cls-3" d="m711.02,267.72c-.61-1.63-.23-3.38.79-4.23.86-.72,2.1-.7,2.95-.27,1.06.53,1.35,1.65,1.78,1.51.47-.15.1-1.46.82-2.56.62-.94,1.81-1.38,2.79-1.28,1.55.15,2.92,1.68,3.15,3.73"/>
    <path class="cls-3" d="m701.25,261.81c-.13-1.93,1.13-3.66,2.84-3.93,1.75-.28,3.43,1.04,3.77,2.99"/>
    <path class="cls-2" d="m740.61,33.91l-46.35-13.67"/>
    <path class="cls-2" d="m742.47,18.71l-49.22,18.14"/>
    <path class="cls-2" d="m708.45,3.29l18.62,47.38"/>
  </g>
</svg>