<?xml version="1.0" encoding="UTF-8"?>
<svg id="Layer_2" data-name="Layer 2" xmlns="http://www.w3.org/2000/svg" xmlns:xlink="http://www.w3.org/1999/xlink" viewBox="0 0 429 204">
  <defs>
    <style>
      .cls-1 {
        clip-path: url(#clippath);
      }

      .cls-2 {
        fill: none;
      }

      .cls-2, .cls-3, .cls-4, .cls-5 {
        stroke-width: 0px;
      }

      .cls-6 {
        mask: url(#mask);
      }

      .cls-3 {
        fill: #1b1e28;
      }

      .cls-4 {
        fill: #fff;
      }

      .cls-5 {
        fill: #f4f4f4;
      }
    </style>
    <clipPath id="clippath">
      <rect class="cls-2" width="429" height="204"/>
    </clipPath>
    <mask id="mask" x="-.01" y="0" width="429.01" height="204" maskUnits="userSpaceOnUse">
      <g id="mask0_204_4123" data-name="mask0 204 4123">
        <path class="cls-4" d="m428.71,0H0v204h428.71V0Z"/>
      </g>
    </mask>
  </defs>
  <g id="Layer_7" data-name="Layer 7">
    <g class="cls-1">
      <g>
        <g class="cls-6">
          <g>
            <path class="cls-3" d="m399.48,204H27.84l-.29-.79c-2.12-5.72-5.79-11.02-10.56-15.31-4.43-3.98-9.92-7.15-15.86-9.18l-.84-.27V55.59l.87-.27c4.76-1.52,11.7-4.62,17.58-10.68,5.39-5.54,7.75-11.36,8.78-15.27l.24-.89h371.76l.34.67c2.69,5.09,6.28,9.78,10.65,13.88,4.61,4.33,9.99,7.98,15.98,10.79l.69.31,1.83,127.49-.91.25c-5.83,1.66-11.19,4.25-15.87,7.65-5.16,3.75-9.42,8.51-12.34,13.8l-.36.64v.04h-.03Z"/>
            <path class="cls-5" d="m399.2,204H27.54l-.29-.79c-2.12-5.72-5.79-11.02-10.56-15.31-4.43-3.98-9.92-7.15-15.86-9.18l-.84-.27V55.59l.87-.27c4.76-1.52,11.7-4.62,17.58-10.68,5.39-5.54,7.75-11.36,8.78-15.27l.24-.89h371.76l.34.67c2.69,5.09,6.28,9.78,10.65,13.88,4.61,4.33,9.99,7.98,15.99,10.79l.69.31,1.84,127.49-.91.25c-5.83,1.66-11.19,4.25-15.87,7.65-5.16,3.75-9.42,8.51-12.34,13.8l-.36.64v.04h-.01Zm-369.74-2.27h368.11c3.08-5.31,7.45-10.12,12.66-13.91,4.71-3.43,10.02-6.05,15.83-7.82l-1.81-124.51c-6-2.89-11.35-6.57-15.99-10.94-4.37-4.11-7.97-8.76-10.75-13.81H29.53c-1.23,4.11-3.77,9.86-9.11,15.34-5.91,6.09-12.82,9.36-17.82,11.06v119.71c5.97,2.15,11.46,5.41,15.96,9.44,4.86,4.33,8.6,9.66,10.89,15.41v.03h.01Z"/>
            <path class="cls-5" d="m393.86,52.18c-.73,0-1.3-.5-1.3-1.12v-13.46c0-.62.57-1.12,1.3-1.12s1.3.5,1.3,1.12v13.46c0,.62-.57,1.12-1.3,1.12Z"/>
            <path class="cls-5" d="m393.86,156.27c-.73,0-1.3-.5-1.3-1.12v-26.02c0-.62.57-1.12,1.3-1.12s1.3.5,1.3,1.12v26.02c0,.62-.57,1.12-1.3,1.12Zm0-52.05c-.73,0-1.3-.5-1.3-1.12v-26.02c0-.62.57-1.12,1.3-1.12s1.3.5,1.3,1.12v26.02c0,.62-.57,1.12-1.3,1.12Z"/>
            <path class="cls-5" d="m393.86,195.76c-.73,0-1.3-.5-1.3-1.12v-13.46c0-.62.57-1.12,1.3-1.12s1.3.5,1.3,1.12v13.46c0,.62-.57,1.12-1.3,1.12Z"/>
            <path class="cls-5" d="m395.17,37.6h-2.62v13.46h2.62v-13.46Z"/>
            <path class="cls-5" d="m395.17,155.15h-2.62v-26.02h2.62v26.02Zm0-52.05h-2.62v-26.02h2.62v26.02Z"/>
            <path class="cls-5" d="m395.17,181.18h-2.62v13.46h2.62v-13.46Z"/>
            <path class="cls-5" d="m34.84,52.18c-.73,0-1.3-.5-1.3-1.12v-13.46c0-.62.57-1.12,1.3-1.12s1.3.5,1.3,1.12v13.46c0,.62-.57,1.12-1.3,1.12Z"/>
            <path class="cls-5" d="m34.84,156.27c-.73,0-1.3-.5-1.3-1.12v-26.02c0-.62.57-1.12,1.3-1.12s1.3.5,1.3,1.12v26.02c0,.62-.57,1.12-1.3,1.12Zm0-52.05c-.73,0-1.3-.5-1.3-1.12v-26.02c0-.62.57-1.12,1.3-1.12s1.3.5,1.3,1.12v26.02c0,.62-.57,1.12-1.3,1.12Z"/>
            <path class="cls-5" d="m34.84,195.76c-.73,0-1.3-.5-1.3-1.12v-13.46c0-.62.57-1.12,1.3-1.12s1.3.5,1.3,1.12v13.46c0,.62-.57,1.12-1.3,1.12Z"/>
            <path class="cls-5" d="m36.16,37.6h-2.62v13.46h2.62v-13.46Z"/>
            <path class="cls-5" d="m36.16,155.15h-2.62v-26.02h2.62v26.02Zm0-52.05h-2.62v-26.02h2.62v26.02Z"/>
            <path class="cls-5" d="m36.16,181.18h-2.62v13.46h2.62v-13.46Z"/>
          </g>
        </g>
        <path class="cls-5" d="m192.28,120.02l.94-9.02h-.34l-2.49,8.08-7.68,16.56h-2.83l-8.15-16.63-2.49-8.15h-.4l1.28,9.09v24.38h-8.01v-47.14h8.15l9.83,20.4,1.62,5.86h.27l1.55-5.99,9.23-20.27h8.01v47.14h-8.49v-24.31Zm33.61,13.67h-11.11l-2.76,10.64h-8.42l13.67-47.47h6.67l13.74,47.47h-8.89l-2.9-10.64Zm-9.29-7h7.81l-2.69-10.98-1.08-7.41h-.27l-1.15,7.47-2.63,10.91Zm23.97-29.02c1.62-.36,3.39-.63,5.32-.81,1.93-.22,3.86-.34,5.79-.34,2.07,0,4.09.2,6.06.61,2.02.36,3.82,1.1,5.39,2.22,1.57,1.12,2.85,2.72,3.84,4.78.99,2.02,1.48,4.67,1.48,7.95,0,2.96-.43,5.48-1.28,7.54-.81,2.07-1.91,3.75-3.3,5.05-1.39,1.3-3.01,2.25-4.85,2.83-1.8.58-3.66.88-5.59.88h-2.15c-.45-.04-.9-.09-1.35-.13-.4-.04-.69-.09-.88-.13v16.23h-8.49v-46.67Zm8.49,22.83c.27.09.76.18,1.48.27.76.04,1.28.07,1.55.07.99,0,1.93-.14,2.83-.4.9-.27,1.68-.72,2.36-1.35.72-.67,1.28-1.57,1.68-2.69.4-1.17.61-2.63.61-4.38,0-1.48-.2-2.74-.61-3.77-.36-1.03-.88-1.84-1.55-2.42-.63-.63-1.37-1.08-2.22-1.35-.85-.27-1.75-.4-2.69-.4-1.39,0-2.54.11-3.43.34v16.09Z"/>
      </g>
    </g>
  </g>
</svg>