<svg width="82" height="112" viewBox="0 0 82 112" fill="none" xmlns="http://www.w3.org/2000/svg">
<path d="M35.2249 59.9297L34.7463 36.0916C34.7463 35.3507 34.2996 34.7842 33.7891 34.7842C33.2467 34.7842 32.8319 35.3507 32.8319 36.0916L32.3853 59.9297L32.8319 71.3912C32.8319 72.132 33.2786 72.6986 33.7891 72.6986C34.3316 72.6986 34.7463 72.132 34.7463 71.3912L35.2249 59.9297Z" fill="#B5FF53"/>
<path d="M31.779 59.9296L31.2366 35.1763C31.2366 34.479 30.8218 33.9561 30.3432 33.9561C29.8646 33.9561 29.4498 34.479 29.4498 35.1763L28.9712 59.886L29.4498 71.4347C29.4498 72.1319 29.8646 72.6549 30.3432 72.6549C30.8218 72.6549 31.2366 72.1319 31.2366 71.4347L31.779 59.9296Z" fill="#B5FF53"/>
<path d="M24.3447 35.3506C24.3128 34.7841 23.9937 34.3047 23.5789 34.3047C23.1641 34.3047 22.8451 34.7405 22.8132 35.3506L22.2708 59.886L22.8132 71.609C22.8132 72.1755 23.1641 72.6113 23.5789 72.6113C23.9937 72.6113 24.3128 72.1755 24.3447 71.5654L24.9828 59.8424L24.3447 35.3506Z" fill="#B5FF53"/>
<path d="M27.7907 34.5227C27.7907 33.9126 27.4079 33.3896 26.9612 33.3896C26.5145 33.3896 26.1316 33.869 26.1316 34.5227L25.6211 59.8862L26.1316 71.5219C26.1316 72.1321 26.5145 72.655 26.9612 72.655C27.4079 72.655 27.7588 72.1756 27.7907 71.5219L28.3651 59.8862L27.7907 34.5227Z" fill="#B5FF53"/>
<path d="M10.4017 72.3496C10.6569 72.3496 10.8484 72.0882 10.8803 71.6959L11.7098 59.8858L10.8803 47.6835C10.8484 47.3348 10.6569 47.0298 10.4017 47.0298C10.1464 47.0298 9.95497 47.2913 9.92306 47.6835L9.18921 59.8858L9.92306 71.6959C9.92306 72.0882 10.1464 72.3496 10.4017 72.3496Z" fill="#B5FF53"/>
<path d="M38.7027 59.9295L38.2561 31.6027C38.2561 31.1233 38.0646 30.6875 37.7775 30.426C37.6179 30.2953 37.4265 30.1646 37.2031 30.1646C37.0117 30.1646 36.8203 30.2517 36.6288 30.3824C36.3417 30.6439 36.1502 31.0797 36.1502 31.5591V31.8206L35.7673 59.886L36.1502 71.2603V71.3039C36.1502 71.6089 36.2459 71.914 36.4055 72.1319C36.5969 72.4369 36.8841 72.6548 37.2031 72.6548C37.4903 72.6548 37.7455 72.4805 37.937 72.2626C38.1284 72.0011 38.2561 71.6525 38.2561 71.2603L38.288 70.1272L38.7027 59.9295Z" fill="#B5FF53"/>
<path d="M14.1985 48.5553C14.1666 48.1195 13.9432 47.8145 13.6561 47.8145C13.3689 47.8145 13.1136 48.1195 13.1136 48.5553L12.4436 59.886L13.1136 71.7833C13.1455 72.2191 13.3689 72.5242 13.6561 72.5242C13.9432 72.5242 14.1985 72.2191 14.1985 71.7833L14.9642 59.886L14.1985 48.5553Z" fill="#B5FF53"/>
<path d="M16.9424 40.6235C16.6233 40.6235 16.3361 40.9722 16.3361 41.4516L15.698 59.8858L16.3361 71.7831C16.368 72.2624 16.6233 72.6111 16.9424 72.6111C17.2614 72.6111 17.5486 72.2624 17.5486 71.7831L18.2824 59.8858L17.5486 41.4516C17.5486 41.0158 17.2614 40.6235 16.9424 40.6235Z" fill="#B5FF53"/>
<path d="M20.8988 71.7834L21.5688 59.9297L20.8988 37.2682C20.8669 36.7452 20.5797 36.353 20.1968 36.353C19.814 36.353 19.5268 36.7452 19.4949 37.2682L18.8887 59.9297L19.4949 71.7834C19.4949 72.3063 19.814 72.6986 20.1968 72.6986C20.5797 72.7421 20.8669 72.3063 20.8988 71.7834Z" fill="#B5FF53"/>
<path d="M41.2234 27.7242C41.0639 27.5935 40.8725 27.5063 40.6491 27.5063C40.3939 27.5063 40.1386 27.6371 39.9472 27.855C39.6919 28.1165 39.5324 28.5523 39.5324 29.0316V29.206L39.0857 59.9733L39.309 65.6387L39.5324 71.1733C39.5324 72.0013 40.0429 72.655 40.6491 72.655C41.2553 72.655 41.7339 71.9577 41.7658 71.1297L42.2444 59.9297L41.7658 29.0316C41.7339 28.4651 41.5425 27.9857 41.2234 27.7242Z" fill="#B5FF53"/>
<path d="M0.925292 66.4228C1.08483 66.4228 1.21245 66.2485 1.24436 65.987L1.9463 59.8858L1.24436 53.6975C1.21245 53.436 1.08483 53.2617 0.925292 53.2617C0.765759 53.2617 0.606226 53.436 0.606226 53.6975L0 59.8858L0.606226 65.987C0.606226 66.2485 0.765759 66.4228 0.925292 66.4228Z" fill="#B5FF53"/>
<path d="M3.9565 70.1271C4.11603 70.1271 4.27557 69.9528 4.30747 69.6914L5.23276 59.8859L4.30747 49.8626C4.27557 49.6011 4.14794 49.4268 3.9565 49.4268C3.79697 49.4268 3.63743 49.6011 3.60553 49.8626L2.80786 59.8859L3.60553 69.6914C3.63743 69.9528 3.76506 70.1271 3.9565 70.1271Z" fill="#B5FF53"/>
<path d="M7.1471 71.9137C7.37044 71.9137 7.52998 71.6958 7.56188 71.3472L8.42336 59.8857L7.56188 47.9884C7.52998 47.6834 7.37044 47.4219 7.1471 47.4219C6.92375 47.4219 6.76422 47.6398 6.73231 47.9884L5.96655 59.8857L6.73231 71.3472C6.76422 71.6522 6.92375 71.9137 7.1471 71.9137Z" fill="#B5FF53"/>
<path d="M71.6303 45.2867C70.2583 45.2867 68.9501 45.6789 67.7377 46.3326C66.94 33.9995 59.3462 24.2812 50.0933 24.2812C47.828 24.2812 45.6264 24.8914 43.6801 25.9373C42.9143 26.3295 42.7229 26.7653 42.7229 27.5497V71.0859C42.7229 71.9139 43.2015 72.5676 43.8077 72.6548H71.6622C77.214 72.6548 81.7128 66.5972 81.7128 59.0143C81.6809 51.4314 77.1821 45.2867 71.6303 45.2867Z" fill="#B5FF53"/>
</svg>
