<?xml version="1.0" encoding="UTF-8"?><svg id="Layer_1" xmlns="http://www.w3.org/2000/svg" width="30mm" height="35mm" viewBox="0 0 85.04 99.21"><defs><style>.cls-1{fill:#b5ff53;stroke-width:0px;}</style></defs><path class="cls-1" d="M36.74,53.54l-.48-23.84c0-.74-.45-1.31-.96-1.31-.54,0-.96.57-.96,1.31l-.45,23.84.45,11.46c0,.74.45,1.31.96,1.31.54,0,.96-.57.96-1.31l.48-11.46Z"/><path class="cls-1" d="M33.3,53.54l-.54-24.75c0-.7-.41-1.22-.89-1.22s-.89.52-.89,1.22l-.48,24.71.48,11.55c0,.7.41,1.22.89,1.22s.89-.52.89-1.22l.54-11.51Z"/><path class="cls-1" d="M25.86,28.96c-.03-.57-.35-1.05-.77-1.05s-.73.44-.77,1.05l-.54,24.54.54,11.72c0,.57.35,1,.77,1s.73-.44.77-1.05l.64-11.72-.64-24.49Z"/><path class="cls-1" d="M29.31,28.13c0-.61-.38-1.13-.83-1.13s-.83.48-.83,1.13l-.51,25.36.51,11.64c0,.61.38,1.13.83,1.13s.8-.48.83-1.13l.57-11.64-.57-25.36Z"/><path class="cls-1" d="M11.92,65.96c.26,0,.45-.26.48-.65l.83-11.81-.83-12.2c-.03-.35-.22-.65-.48-.65s-.45.26-.48.65l-.73,12.2.73,11.81c0,.39.22.65.48.65Z"/><path class="cls-1" d="M40.22,53.54l-.45-28.33c0-.48-.19-.92-.48-1.18-.16-.13-.35-.26-.57-.26-.19,0-.38.09-.57.22-.29.26-.48.7-.48,1.18v.26l-.38,28.07.38,11.37v.04c0,.31.1.61.26.83.19.31.48.52.8.52.29,0,.54-.17.73-.39.19-.26.32-.61.32-1l.03-1.13.41-10.2Z"/><path class="cls-1" d="M15.72,42.16c-.03-.44-.26-.74-.54-.74s-.54.31-.54.74l-.67,11.33.67,11.9c.03.44.26.74.54.74s.54-.31.54-.74l.77-11.9-.77-11.33Z"/><path class="cls-1" d="M18.46,34.23c-.32,0-.61.35-.61.83l-.64,18.43.64,11.9c.03.48.29.83.61.83s.61-.35.61-.83l.73-11.9-.73-18.43c0-.44-.29-.83-.61-.83Z"/><path class="cls-1" d="M22.42,65.39l.67-11.85-.67-22.66c-.03-.52-.32-.92-.7-.92s-.67.39-.7.92l-.61,22.66.61,11.85c0,.52.32.92.7.92.38.04.67-.39.7-.92Z"/><path class="cls-1" d="M42.74,21.33c-.16-.13-.35-.22-.57-.22-.26,0-.51.13-.7.35-.26.26-.41.7-.41,1.18v.17l-.45,30.77.22,5.67.22,5.53c0,.83.51,1.48,1.12,1.48s1.08-.7,1.12-1.53l.48-11.2-.48-30.9c-.03-.57-.22-1.05-.54-1.31Z"/><path class="cls-1" d="M2.44,60.03c.16,0,.29-.17.32-.44l.7-6.1-.7-6.19c-.03-.26-.16-.44-.32-.44s-.32.17-.32.44l-.61,6.19.61,6.1c0,.26.16.44.32.44Z"/><path class="cls-1" d="M5.48,63.73c.16,0,.32-.17.35-.44l.93-9.81-.93-10.02c-.03-.26-.16-.44-.35-.44-.16,0-.32.17-.35.44l-.8,10.02.8,9.81c.03.26.16.44.35.44Z"/><path class="cls-1" d="M8.67,65.52c.22,0,.38-.22.41-.57l.86-11.46-.86-11.9c-.03-.31-.19-.57-.41-.57s-.38.22-.41.57l-.77,11.9.77,11.46c.03.31.19.57.41.57Z"/><path class="cls-1" d="M73.15,38.89c-1.37,0-2.68.39-3.89,1.05-.8-12.33-8.39-22.05-17.64-22.05-2.27,0-4.47.61-6.41,1.66-.77.39-.96.83-.96,1.61v43.54c0,.83.48,1.48,1.08,1.57h27.85c5.55,0,10.05-6.06,10.05-13.64-.03-7.58-4.53-13.73-10.08-13.73Z"/></svg>