<?xml version="1.0" encoding="UTF-8"?><svg id="Layer_1" xmlns="http://www.w3.org/2000/svg" width="25mm" height="17mm" viewBox="0 0 70.87 48.19"><defs><style>.cls-1{fill:#b5ff53;stroke-width:0px;}</style></defs><path class="cls-1" d="M30.65,32.35l-.41-19.72c0-.61-.38-1.08-.81-1.08-.46,0-.81.47-.81,1.08l-.38,19.72.38,9.48c0,.61.38,1.08.81,1.08.46,0,.81-.47.81-1.08l.41-9.48Z"/><path class="cls-1" d="M27.73,32.35l-.46-20.48c0-.58-.35-1.01-.76-1.01s-.76.43-.76,1.01l-.41,20.44.41,9.55c0,.58.35,1.01.76,1.01s.76-.43.76-1.01l.46-9.52Z"/><path class="cls-1" d="M21.41,12.01c-.03-.47-.3-.87-.65-.87s-.62.36-.65.87l-.46,20.3.46,9.7c0,.47.3.83.65.83s.62-.36.65-.87l.54-9.7-.54-20.26Z"/><path class="cls-1" d="M24.34,11.33c0-.5-.33-.94-.7-.94s-.7.4-.7.94l-.43,20.98.43,9.63c0,.5.33.94.7.94s.68-.4.7-.94l.49-9.63-.49-20.98Z"/><path class="cls-1" d="M9.57,42.62c.22,0,.38-.22.41-.54l.7-9.77-.7-10.1c-.03-.29-.19-.54-.41-.54s-.38.22-.41.54l-.62,10.1.62,9.77c0,.32.19.54.41.54Z"/><path class="cls-1" d="M33.6,32.35l-.38-23.44c0-.4-.16-.76-.41-.97-.14-.11-.3-.22-.49-.22-.16,0-.33.07-.49.18-.24.22-.41.58-.41.97v.22l-.33,23.22.33,9.41v.04c0,.25.08.5.22.69.16.25.41.43.68.43.24,0,.46-.14.62-.32.16-.22.27-.5.27-.83l.03-.94.35-8.44Z"/><path class="cls-1" d="M12.8,22.94c-.03-.36-.22-.61-.46-.61s-.46.25-.46.61l-.57,9.37.57,9.84c.03.36.22.61.46.61s.46-.25.46-.61l.65-9.84-.65-9.37Z"/><path class="cls-1" d="M15.13,16.38c-.27,0-.51.29-.51.69l-.54,15.25.54,9.84c.03.4.24.69.51.69s.51-.29.51-.69l.62-9.84-.62-15.25c0-.36-.24-.69-.51-.69Z"/><path class="cls-1" d="M18.49,42.16l.57-9.81-.57-18.75c-.03-.43-.27-.76-.6-.76s-.57.32-.6.76l-.51,18.75.51,9.81c0,.43.27.76.6.76.33.04.57-.32.6-.76Z"/><path class="cls-1" d="M35.74,5.7c-.14-.11-.3-.18-.49-.18-.22,0-.43.11-.6.29-.22.22-.35.58-.35.97v.14l-.38,25.46.19,4.69.19,4.58c0,.69.43,1.23.95,1.23s.92-.58.95-1.26l.41-9.27-.41-25.56c-.03-.47-.19-.87-.46-1.08Z"/><path class="cls-1" d="M1.53,37.72c.14,0,.24-.14.27-.36l.6-5.05-.6-5.12c-.03-.22-.14-.36-.27-.36s-.27.14-.27.36l-.51,5.12.51,5.05c0,.22.14.36.27.36Z"/><path class="cls-1" d="M4.1,40.79c.14,0,.27-.14.3-.36l.79-8.11-.79-8.29c-.03-.22-.14-.36-.3-.36-.14,0-.27.14-.3.36l-.68,8.29.68,8.11c.03.22.14.36.3.36Z"/><path class="cls-1" d="M6.81,42.26c.19,0,.33-.18.35-.47l.73-9.48-.73-9.84c-.03-.25-.16-.47-.35-.47s-.33.18-.35.47l-.65,9.84.65,9.48c.03.25.16.47.35.47Z"/><path class="cls-1" d="M61.56,20.23c-1.17,0-2.28.32-3.31.87-.68-10.2-7.13-18.24-14.98-18.24-1.92,0-3.79.5-5.45,1.37-.65.32-.81.69-.81,1.33v36.02c0,.69.41,1.23.92,1.3h23.65c4.71,0,8.53-5.01,8.53-11.29-.03-6.27-3.85-11.36-8.56-11.36Z"/></svg>