<?xml version="1.0" encoding="UTF-8"?><svg id="Layer_1" xmlns="http://www.w3.org/2000/svg" width="25mm" height="25mm" xmlns:xlink="http://www.w3.org/1999/xlink" viewBox="0 0 70.87 70.87"><defs><style>.cls-1{clip-path:url(#clippath);}.cls-2{fill:none;}.cls-2,.cls-3{stroke-width:0px;}.cls-3{fill:#b5ff53;}</style><clipPath id="clippath"><rect class="cls-2" x="5.43" y="3.93" width="60" height="63"/></clipPath></defs><g class="cls-1"><path class="cls-3" d="M35.42,3.93c-16.54,0-29.99,14.13-29.99,31.49s13.45,31.51,29.99,31.51,30.01-14.14,30.01-31.51S51.97,3.93,35.42,3.93ZM48.62,53.35c-.26.5-.78.83-1.33.83-.27,0-.51-.06-.75-.2-4.81-2.78-10.25-4.24-15.74-4.24-3.32,0-6.57.52-9.67,1.53-.15.05-.31.07-.46.07-.68,0-1.27-.45-1.47-1.13-.27-.92.29-2.97,1.01-3.21,3.48-1.11,7.04-1.67,10.59-1.67,6.03,0,11.99,1.61,17.23,4.65.31.18.59.77.72,1.5.13.73.08,1.49-.13,1.88ZM52.36,41.69c-.57,1.17-1.23,1.95-1.65,1.95-.3,0-.59-.08-.87-.23-5.91-3.23-12.31-4.87-19.04-4.87-3.74,0-7.42.52-10.92,1.54-.16.05-.33.07-.5.07-.84,0-1.58-.6-1.8-1.45-.28-1.11.36-3.05,1.31-3.32,3.88-1.11,7.88-1.67,11.9-1.67,7.23,0,14.41,1.84,20.77,5.32.45.24.77.64.92,1.13.15.5.11,1.04-.13,1.52ZM56.36,30.48c-.36.76-1.14,1.57-1.99,1.57-.33,0-.67-.08-.97-.23-7.05-3.7-14.65-5.58-22.6-5.58-4.09,0-8.2.53-12.24,1.57-.18.05-.36.07-.54.07-1.02,0-1.9-.72-2.14-1.75-.31-1.31.47-2.82,1.6-3.12,4.38-1.13,8.87-1.7,13.32-1.7,8.63,0,16.89,2.04,24.56,6.05.53.28.93.75,1.12,1.34.19.59.15,1.22-.12,1.78Z"/></g></svg>