<svg width="60" height="63" viewBox="0 0 60 63" fill="none" xmlns="http://www.w3.org/2000/svg">
<g clip-path="url(#clip0_204_11286)">
<path d="M29.9884 0C13.4528 0 0 14.1266 0 31.4903C0 48.8649 13.4528 63 29.9884 63C46.5368 63 60 48.8649 60 31.4903C60 14.1266 46.5368 0 29.9884 0ZM43.1904 49.4142C42.9329 49.9178 42.4104 50.2432 41.859 50.2432C41.5857 50.2432 41.3456 50.1788 41.1054 50.0423C36.2959 47.2666 30.853 45.7994 25.3648 45.7994C22.0491 45.7994 18.7938 46.3146 15.6926 47.3297C15.5415 47.3778 15.3861 47.4027 15.2306 47.4027C14.5515 47.4027 13.9622 46.9487 13.7645 46.2745C13.4975 45.3532 14.0495 43.3086 14.7697 43.0611C18.2466 41.9499 21.8114 41.3863 25.3645 41.3863C31.3991 41.3863 37.3567 42.9921 42.5958 46.0318C42.9074 46.2101 43.1906 46.7996 43.3178 47.5335C43.4449 48.2671 43.3944 49.0214 43.1904 49.4142ZM46.9318 37.7605C46.3643 38.9267 45.7009 39.7102 45.2808 39.7102C44.9829 39.7102 44.6955 39.6352 44.4093 39.485C38.5038 36.2559 32.0965 34.6187 25.3644 34.6187C21.6198 34.6187 17.9461 35.1358 14.4485 36.1545C14.2859 36.2008 14.1189 36.2241 13.9526 36.2241C13.1112 36.2244 12.3697 35.6279 12.1502 34.7755C11.8689 33.6676 12.5112 31.7305 13.4612 31.459C17.3364 30.353 21.3412 29.7921 25.3644 29.7921C32.5969 29.7921 39.7788 31.6297 46.1384 35.1085C46.5841 35.346 46.9126 35.7491 47.0632 36.2425C47.2162 36.7428 47.1701 37.2803 46.9318 37.7605ZM50.9278 26.5511C50.5686 27.3061 49.7924 28.1188 48.9368 28.1188C48.6069 28.1188 48.2681 28.0376 47.9681 27.8897C40.9218 24.1879 33.3169 22.311 25.3649 22.311C21.2784 22.311 17.1611 22.8387 13.1269 23.8792C12.9492 23.9252 12.7677 23.9486 12.5871 23.9486C11.5703 23.9486 10.6891 23.2273 10.4445 22.1958C10.1378 20.8898 10.916 19.3726 12.043 19.0745C16.4262 17.944 20.9082 17.3708 25.365 17.3708C33.9925 17.3708 42.2549 19.4074 49.9259 23.4255C50.4586 23.7015 50.8557 24.1778 51.0446 24.7665C51.2331 25.3559 51.1914 25.9905 50.9278 26.5511Z" fill="#B5FF53"/>
</g>
<defs>
<clipPath id="clip0_204_11286">
<rect width="60" height="63" fill="white"/>
</clipPath>
</defs>
</svg>
