<svg width="85" height="80" viewBox="0 0 85 80" fill="none" xmlns="http://www.w3.org/2000/svg">
<path d="M28.0254 41.7005V20.6142L46.4436 31.1585L28.0254 41.7005ZM68.9922 13.9764C68.1605 10.8998 65.8109 8.52091 62.8246 7.67906L62.7612 7.66488C55.2591 6.70479 46.5822 6.15617 37.7761 6.15617C36.8809 6.15617 35.9881 6.1609 35.0976 6.17273L35.2339 6.17036C34.4773 6.1609 33.5868 6.15381 32.6917 6.15381C23.8855 6.15381 15.2039 6.70243 6.68212 7.76419L7.70183 7.66015C4.65446 8.51855 2.30491 10.8951 1.48962 13.9101L1.47552 13.9716C0.535698 18.9589 0 24.6981 0 30.5626C0 30.7707 1.09683e-07 30.9788 0.00234966 31.1845V31.1514C0.00234966 31.3264 0 31.5345 0 31.7426C0 37.6072 0.538047 43.344 1.5648 48.9083L1.47552 48.3313C2.30726 51.4078 4.65681 53.7867 7.64309 54.6286L7.70653 54.6427C15.2086 55.6028 23.8855 56.1514 32.6917 56.1514C33.5845 56.1514 34.4773 56.1467 35.3701 56.1349L35.2339 56.1373C35.9904 56.1467 36.8833 56.1538 37.7761 56.1538C46.5845 56.1538 55.2638 55.6052 63.7856 54.5434L62.7659 54.6475C65.8156 53.7914 68.1652 51.4125 68.9828 48.3975L68.9969 48.336C69.9344 43.3488 70.4701 37.6095 70.4701 31.7474C70.4701 31.5393 70.4701 31.3312 70.4677 31.1254V31.1562C70.4677 30.9812 70.4701 30.7731 70.4701 30.565C70.4701 24.7004 69.932 18.9636 68.9053 13.3994L68.9922 13.9764Z" fill="#B5FF53"/>
</svg>
