<?xml version="1.0" encoding="UTF-8"?><svg id="Layer_1" xmlns="http://www.w3.org/2000/svg" width="30mm" height="30mm" viewBox="0 0 85.04 85.04"><defs><style>.cls-1{fill:#b5ff53;stroke-width:0px;}</style></defs><path class="cls-1" d="M35.31,53.07v-21.09l18.42,10.54-18.42,10.54ZM76.28,25.34c-.83-3.08-3.18-5.46-6.17-6.3h-.06c-7.5-.97-16.18-1.52-24.99-1.52-.9,0-1.79,0-2.68.02h.14c-.76-.01-1.65-.02-2.54-.02-8.81,0-17.49.55-26.01,1.61l1.02-.1c-3.05.86-5.4,3.23-6.21,6.25v.06c-.95,4.99-1.49,10.73-1.49,16.59,0,.21,0,.42,0,.62v-.03c0,.18,0,.38,0,.59,0,5.86.54,11.6,1.56,17.17l-.09-.58c.83,3.08,3.18,5.46,6.17,6.3h.06c7.5.97,16.18,1.52,24.99,1.52.89,0,1.79,0,2.68-.02h-.14c.76.01,1.65.02,2.54.02,8.81,0,17.49-.55,26.01-1.61l-1.02.1c3.05-.86,5.4-3.24,6.22-6.25v-.06c.95-4.99,1.49-10.73,1.49-16.59,0-.21,0-.42,0-.62v.03c0-.18,0-.38,0-.59,0-5.86-.54-11.6-1.56-17.17l.09.58Z"/></svg>